<svg width="467" height="964" viewBox="0 0 467 964" fill="none" xmlns="http://www.w3.org/2000/svg">
<circle cx="62.5942" cy="463.594" r="12.1257" transform="rotate(7.44367 62.5942 463.594)" fill="#DDF2FF" fill-opacity="0.5"/>
<circle cx="166.717" cy="304.718" r="17.3625" transform="rotate(60 166.717 304.718)" fill="#F017F4" fill-opacity="0.1"/>
<circle cx="343.462" cy="196.462" r="23.7638" transform="rotate(60 343.462 196.462)" fill="#F417B2" fill-opacity="0.06"/>
<circle cx="384.462" cy="290.462" r="23.7638" transform="rotate(60 384.462 290.462)" fill="#F417B2" fill-opacity="0.06"/>
<circle cx="416.513" cy="218.513" r="36.2463" transform="rotate(60 416.513 218.513)" fill="#172AF4" fill-opacity="0.06"/>
<circle cx="214.298" cy="98.298" r="13.6453" transform="rotate(7.44367 214.298 98.298)" fill="#E6DDFF" fill-opacity="0.36"/>
<circle cx="391.718" cy="559.718" r="17.3625" transform="rotate(60 391.718 559.718)" fill="#F017F4" fill-opacity="0.1"/>
<circle cx="343.462" cy="610.462" r="23.7638" transform="rotate(60 343.462 610.462)" fill="#F417B2" fill-opacity="0.06"/>
<circle cx="384.462" cy="704.462" r="23.7638" transform="rotate(60 384.462 704.462)" fill="#F417B2" fill-opacity="0.06"/>
<circle cx="220.462" cy="906.462" r="23.7638" transform="rotate(60 220.462 906.462)" fill="#F417B2" fill-opacity="0.06"/>
<circle cx="289.513" cy="897.513" r="36.2463" transform="rotate(60 289.513 897.513)" fill="#172AF4" fill-opacity="0.06"/>
<circle cx="239.674" cy="407.675" r="26.1156" transform="rotate(60 239.674 407.675)" fill="#171BF4" fill-opacity="0.06"/>
<circle cx="348.674" cy="348.675" r="26.1156" transform="rotate(60 348.674 348.675)" fill="#171BF4" fill-opacity="0.06"/>
<path d="M300.605 541.355L296.342 551.775C290.959 564.923 288.271 571.497 291.209 574.688C294.147 577.878 300.194 574.955 312.299 569.112L321.898 564.476C329.198 560.951 332.85 559.19 333.43 555.791C334.01 552.393 331.185 549.325 325.535 543.192L320.205 537.399C314.558 531.263 311.733 528.195 308.604 528.828C305.475 529.458 303.854 533.424 300.608 541.352M303.047 539.774L323.349 561.823M297.247 555.524L308.848 568.123M330.599 531.899L339.299 522.45M325.37 513C326.53 515.101 327.455 520.56 321.898 525.6M348 537.579C346.066 536.319 341.04 535.314 336.399 541.349M336.399 513V513.063M348 525.6V525.663M345.1 547.649V547.712M316.098 516.15V516.213" stroke="#F583AF" stroke-opacity="0.14" stroke-width="3" stroke-linecap="round" stroke-linejoin="round"/>
<circle cx="349.821" cy="490.822" r="23.9238" transform="rotate(7.44367 349.821 490.822)" fill="#FCC6D4" fill-opacity="0.25"/>
<circle cx="394.07" cy="392.278" r="14.3343" transform="rotate(7.44367 394.07 392.278)" fill="#E6DDFF" fill-opacity="0.47"/>
<circle cx="217.298" cy="596.298" r="13.6453" transform="rotate(7.44367 217.298 596.298)" fill="#E6DDFF" fill-opacity="0.36"/>
<circle cx="46.7171" cy="497.718" r="17.3625" transform="rotate(60 46.7171 497.718)" fill="#F017F4" fill-opacity="0.1"/>
<circle cx="49.5132" cy="555.513" r="36.2463" transform="rotate(60 49.5132 555.513)" fill="#7B17F4" fill-opacity="0.12"/>
<circle cx="46.7171" cy="900.718" r="17.3625" transform="rotate(60 46.7171 900.718)" fill="#F017F4" fill-opacity="0.1"/>
<circle cx="162.584" cy="486.584" r="11.2247" transform="rotate(7.44367 162.584 486.584)" fill="#F7DDFF" fill-opacity="0.47"/>
<circle cx="357.247" cy="928.247" r="25.8024" transform="rotate(60 357.247 928.247)" fill="#F017F4" fill-opacity="0.1"/>
<circle cx="360.778" cy="831.779" r="35.7087" transform="rotate(60 360.778 831.779)" fill="#F017F4" fill-opacity="0.07"/>
<circle cx="281.691" cy="805.691" r="40.7689" transform="rotate(60 281.691 805.691)" fill="#8E74EE" fill-opacity="0.14"/>
<circle cx="159.462" cy="221.462" r="23.7638" transform="rotate(60 159.462 221.462)" fill="#F417B2" fill-opacity="0.08"/>
<circle cx="149.674" cy="372.675" r="26.1156" transform="rotate(60 149.674 372.675)" fill="#171BF4" fill-opacity="0.1"/>
<circle cx="79.5942" cy="394.594" r="12.1257" transform="rotate(7.44367 79.5942 394.594)" fill="#DDF2FF" fill-opacity="0.62"/>
<circle cx="118.594" cy="404.594" r="12.1257" transform="rotate(7.44367 118.594 404.594)" fill="#DDF2FF" fill-opacity="0.66"/>
<path d="M361.134 461.119L370.095 467.933C381.402 476.536 387.056 480.834 390.898 478.822C394.741 476.81 393.483 470.213 390.972 457.007L388.978 446.535C387.462 438.572 386.706 434.589 383.574 433.149C380.441 431.709 376.746 433.644 369.36 437.513L362.385 441.163C354.997 445.029 351.302 446.964 351.104 450.15C350.903 453.336 354.314 455.928 361.132 461.115M360.239 458.351L386.791 444.448M373.95 468.029L389.123 460.085M359.763 429.7L352.887 418.85M340.154 429.859C342.484 429.282 347.996 429.801 351.426 436.473M369.753 414.361C368.035 415.904 365.764 420.498 370.392 426.543M343.009 419.205L343.07 419.222M358.182 411.261L358.243 411.277M378.729 419.769L378.79 419.785M340.797 439.63L340.858 439.646" stroke="#F583AF" stroke-opacity="0.27" stroke-width="3" stroke-linecap="round" stroke-linejoin="round"/>
<circle cx="281.462" cy="408.462" r="23.7638" transform="rotate(60 281.462 408.462)" fill="#173CF4" fill-opacity="0.16"/>
<circle cx="341.718" cy="393.718" r="17.3625" transform="rotate(60 341.718 393.718)" fill="#17AAF4" fill-opacity="0.15"/>
<circle cx="94.4489" cy="738.449" r="60.3568" transform="rotate(60 94.4489 738.449)" fill="#74C6EE" fill-opacity="0.3"/>
<circle cx="51.1564" cy="628.156" r="30.8606" transform="rotate(60 51.1564 628.156)" fill="#BD17F4" fill-opacity="0.2"/>
<circle cx="109.299" cy="638.298" r="13.6453" transform="rotate(7.44367 109.299 638.298)" fill="#E6DDFF" fill-opacity="0.45"/>
<circle cx="158.462" cy="635.462" r="23.7638" transform="rotate(60 158.462 635.462)" fill="#F417B2" fill-opacity="0.15"/>
<circle cx="68.2986" cy="553.298" r="13.6453" transform="rotate(7.44367 68.2986 553.298)" fill="#E6DDFF" fill-opacity="0.36"/>
<circle cx="166.822" cy="512.822" r="23.9238" transform="rotate(7.44367 166.822 512.822)" fill="#FCC6D4" fill-opacity="0.33"/>
<circle cx="99.548" cy="496.548" r="30.4151" transform="rotate(60 99.548 496.548)" fill="#F017F4" fill-opacity="0.15"/>
<circle cx="198.071" cy="417.07" r="14.3343" transform="rotate(7.44367 198.071 417.07)" fill="#E6DDFF" fill-opacity="0.47"/>
<circle cx="44.6744" cy="428.675" r="26.1156" transform="rotate(60 44.6744 428.675)" fill="#171BF4" fill-opacity="0.16"/>
<circle cx="369.692" cy="663.691" r="40.7689" transform="rotate(60 369.692 663.691)" fill="#8E74EE" fill-opacity="0.27"/>
<circle cx="376.718" cy="596.718" r="17.3625" transform="rotate(60 376.718 596.718)" fill="#F017F4" fill-opacity="0.19"/>
<circle cx="291.449" cy="571.449" r="60.3568" transform="rotate(60 291.449 571.449)" fill="#74C6EE" fill-opacity="0.24"/>
<circle cx="243.987" cy="471.987" r="31.2075" transform="rotate(7.44367 243.987 471.987)" fill="#F7DDFF" fill-opacity="0.63"/>
<circle cx="223.513" cy="653.513" r="36.2463" transform="rotate(60 223.513 653.513)" fill="#172AF4" fill-opacity="0.2"/>
<circle cx="295.718" cy="657.718" r="17.3625" transform="rotate(60 295.718 657.718)" fill="#F017F4" fill-opacity="0.1"/>
<circle cx="207.462" cy="327.462" r="23.7638" transform="rotate(60 207.462 327.462)" fill="#F417B2" fill-opacity="0.14"/>
<circle cx="253.513" cy="257.513" r="36.2463" transform="rotate(60 253.513 257.513)" fill="#172AF4" fill-opacity="0.13"/>
<circle cx="279.513" cy="338.513" r="36.2463" transform="rotate(60 279.513 338.513)" fill="#7B17F4" fill-opacity="0.2"/>
<circle cx="397.779" cy="775.779" r="35.7087" transform="rotate(60 397.779 775.779)" fill="#F017F4" fill-opacity="0.15"/>
<circle cx="269.513" cy="729.513" r="36.2463" transform="rotate(60 269.513 729.513)" fill="#7B17F4" fill-opacity="0.16"/>
<circle cx="101.548" cy="41.5477" r="30.4151" transform="rotate(60 101.548 41.5477)" fill="#F017F4" fill-opacity="0.06"/>
<circle cx="169.822" cy="87.8216" r="23.9238" transform="rotate(7.44367 169.822 87.8216)" fill="#FCC6D4" fill-opacity="0.25"/>
<circle cx="244.987" cy="44.9874" r="31.2075" transform="rotate(7.44367 244.987 44.9874)" fill="#F7DDFF" fill-opacity="0.47"/>
<circle cx="314.462" cy="52.462" r="23.7638" transform="rotate(60 314.462 52.462)" fill="#F017F4" fill-opacity="0.1"/>
<circle cx="82.4489" cy="302.449" r="60.3568" transform="rotate(60 82.4489 302.449)" fill="#74C6EE" fill-opacity="0.22"/>
<circle cx="377.779" cy="341.779" r="35.7087" transform="rotate(60 377.779 341.779)" fill="#F017F4" fill-opacity="0.17"/>
<circle cx="362.692" cy="244.691" r="40.7689" transform="rotate(60 362.692 244.691)" fill="#8E74EE" fill-opacity="0.25"/>
<circle cx="160.675" cy="798.675" r="26.1156" transform="rotate(60 160.675 798.675)" fill="#171BF4" fill-opacity="0.06"/>
<circle cx="167.821" cy="932.822" r="23.9238" transform="rotate(7.44367 167.821 932.822)" fill="#FCC6D4" fill-opacity="0.25"/>
<circle cx="193.462" cy="716.462" r="23.7638" transform="rotate(60 193.462 716.462)" fill="#F417B2" fill-opacity="0.12"/>
<circle cx="306.586" cy="465.586" r="20.1945" transform="rotate(60 306.586 465.586)" fill="#F017F4" fill-opacity="0.17"/>
<circle cx="397.779" cy="533.779" r="35.7087" transform="rotate(60 397.779 533.779)" fill="#F017F4" fill-opacity="0.07"/>
<circle cx="222.449" cy="532.449" r="16.4557" transform="rotate(7.44367 222.449 532.449)" fill="#E6DDFF" fill-opacity="0.47"/>
<circle cx="288.718" cy="250.718" r="17.3625" transform="rotate(60 288.718 250.718)" fill="#F017F4" fill-opacity="0.1"/>
<circle cx="51.5942" cy="64.5944" r="12.1257" transform="rotate(7.44367 51.5942 64.5944)" fill="#DDF2FF" fill-opacity="0.5"/>
<circle cx="181.717" cy="588.718" r="17.3625" transform="rotate(60 181.717 588.718)" fill="#F017F4" fill-opacity="0.18"/>
<circle cx="334.718" cy="742.718" r="17.3625" transform="rotate(60 334.718 742.718)" fill="#F017F4" fill-opacity="0.1"/>
<circle cx="221.469" cy="791.469" r="19.3767" transform="rotate(60 221.469 791.469)" fill="#1770F4" fill-opacity="0.06"/>
<path d="M352.134 875.119L361.095 881.933C372.402 890.536 378.056 894.834 381.898 892.822C385.741 890.81 384.483 884.213 381.972 871.007L379.978 860.535C378.462 852.572 377.706 848.589 374.574 847.149C371.441 845.709 367.746 847.644 360.36 851.513L353.385 855.163C345.997 859.029 342.302 860.964 342.104 864.15C341.903 867.336 345.314 869.928 352.132 875.115M351.239 872.351L377.791 858.448M364.95 882.029L380.123 874.085M350.763 843.7L343.887 832.85M331.154 843.859C333.484 843.282 338.996 843.801 342.426 850.473M360.753 828.361C359.035 829.904 356.764 834.498 361.392 840.543M334.009 833.205L334.07 833.222M349.182 825.261L349.243 825.277M369.729 833.769L369.79 833.785M331.797 853.63L331.858 853.646" stroke="#F583AF" stroke-opacity="0.14" stroke-width="3" stroke-linecap="round" stroke-linejoin="round"/>
<circle cx="205.07" cy="846.07" r="14.3343" transform="rotate(7.44367 205.07 846.07)" fill="#E6DDFF" fill-opacity="0.47"/>
<path d="M134.306 829.362L123.15 830.88C109.073 832.792 102.035 833.751 100.741 837.891C99.4466 842.03 105.002 845.806 116.114 853.368L124.93 859.363C131.632 863.922 134.983 866.204 138.216 865.007C141.449 863.81 142.694 859.829 145.18 851.87L147.532 844.358C150.022 836.4 151.267 832.419 149.154 830.026C147.044 827.631 142.799 828.21 134.31 829.363M136.896 830.686L127.952 859.292M120.357 833.538L115.245 849.884M157.492 850.609L170.026 853.419M171.245 836.631C170.005 838.686 165.74 842.217 158.597 839.925M161.274 868.519C161.398 866.214 159.755 861.359 152.208 860.358M176.759 846.183L176.705 846.214M171.648 862.529L171.593 862.561M151.103 871.042L151.048 871.074M163.881 830.177L163.826 830.208" stroke="#397BD8" stroke-opacity="0.1" stroke-width="3" stroke-linecap="round" stroke-linejoin="round"/>
<circle cx="58.6744" cy="855.675" r="26.1156" transform="rotate(60 58.6744 855.675)" fill="#171BF4" fill-opacity="0.06"/>
<circle cx="69.5942" cy="810.594" r="12.1257" transform="rotate(7.44367 69.5942 810.594)" fill="#DDF2FF" fill-opacity="0.5"/>
<circle cx="110.548" cy="896.548" r="30.4151" transform="rotate(60 110.548 896.548)" fill="#F017F4" fill-opacity="0.06"/>
</svg>
