<svg width="365" height="804" viewBox="0 0 365 804" fill="none" xmlns="http://www.w3.org/2000/svg">
<circle cx="169.718" cy="588.718" r="17.3625" transform="rotate(60 169.718 588.718)" fill="#F017F4" fill-opacity="0.1"/>
<circle cx="254.718" cy="671.718" r="17.3625" transform="rotate(60 254.718 671.718)" fill="#F017F4" fill-opacity="0.1"/>
<circle cx="303.718" cy="739.718" r="17.3625" transform="rotate(60 303.718 739.718)" fill="#F017F4" fill-opacity="0.1"/>
<circle cx="343.718" cy="598.718" r="17.3625" transform="rotate(60 343.718 598.718)" fill="#F017F4" fill-opacity="0.1"/>
<circle cx="121.462" cy="639.462" r="23.7638" transform="rotate(60 121.462 639.462)" fill="#F417B2" fill-opacity="0.06"/>
<circle cx="162.462" cy="733.462" r="23.7638" transform="rotate(60 162.462 733.462)" fill="#F417B2" fill-opacity="0.06"/>
<circle cx="18.1564" cy="620.156" r="30.8606" transform="rotate(60 18.1564 620.156)" fill="#BD17F4" fill-opacity="0.06"/>
<circle cx="194.513" cy="661.513" r="36.2463" transform="rotate(60 194.513 661.513)" fill="#172AF4" fill-opacity="0.06"/>
<circle cx="242.513" cy="750.513" r="36.2463" transform="rotate(60 242.513 750.513)" fill="#7B17F4" fill-opacity="0.06"/>
<circle cx="66.548" cy="506.548" r="30.4151" transform="rotate(60 66.548 506.548)" fill="#F017F4" fill-opacity="0.06"/>
<circle cx="17.6747" cy="436.675" r="26.1156" transform="rotate(60 17.6747 436.675)" fill="#171BF4" fill-opacity="0.06"/>
<circle cx="126.675" cy="377.675" r="26.1156" transform="rotate(60 126.675 377.675)" fill="#171BF4" fill-opacity="0.06"/>
<circle cx="276.462" cy="478.462" r="23.7638" transform="rotate(60 276.462 478.462)" fill="#F017F4" fill-opacity="0.1"/>
<circle cx="261.462" cy="412.462" r="23.7638" transform="rotate(60 261.462 412.462)" fill="#173CF4" fill-opacity="0.1"/>
<circle cx="363.779" cy="533.779" r="35.7087" transform="rotate(60 363.779 533.779)" fill="#F017F4" fill-opacity="0.07"/>
<circle cx="367.779" cy="752.779" r="35.7087" transform="rotate(60 367.779 752.779)" fill="#F017F4" fill-opacity="0.07"/>
<circle cx="261.449" cy="573.449" r="60.3568" transform="rotate(60 261.449 573.449)" fill="#74C6EE" fill-opacity="0.14"/>
<circle cx="64.4489" cy="721.449" r="60.3568" transform="rotate(60 64.4489 721.449)" fill="#74C6EE" fill-opacity="0.14"/>
<circle cx="328.691" cy="667.691" r="40.7689" transform="rotate(60 328.691 667.691)" fill="#8E74EE" fill-opacity="0.14"/>
<path d="M78.6055 570.355L74.3422 580.775C68.9595 593.923 66.271 600.497 69.2089 603.688C72.1468 606.878 78.1936 603.955 90.2989 598.112L99.8985 593.476C107.198 589.951 110.85 588.19 111.43 584.791C112.01 581.393 109.185 578.325 103.535 572.192L98.2048 566.399C92.5582 560.263 89.7334 557.195 86.6041 557.828C83.4748 558.458 81.8536 562.424 78.6084 570.352M81.0474 568.774L101.349 590.823M75.2471 584.524L86.8477 597.123M108.599 560.899L117.299 551.45M103.37 542C104.53 544.101 105.455 549.56 99.8985 554.6M126 566.579C124.066 565.319 119.04 564.314 114.399 570.349M114.399 542V542.063M126 554.6V554.663M123.1 576.649V576.712M94.0982 545.15V545.213" stroke="#F583AF" stroke-opacity="0.14" stroke-width="3" stroke-linecap="round" stroke-linejoin="round"/>
<path d="M319.134 463.119L328.095 469.933C339.402 478.536 345.056 482.834 348.898 480.822C352.741 478.81 351.483 472.213 348.972 459.007L346.978 448.535C345.462 440.572 344.706 436.589 341.574 435.149C338.441 433.709 334.746 435.644 327.36 439.513L320.385 443.163C312.997 447.029 309.302 448.964 309.104 452.15C308.903 455.336 312.314 457.928 319.132 463.115M318.239 460.351L344.791 446.448M331.95 470.029L347.123 462.085M317.763 431.7L310.887 420.85M298.154 431.859C300.484 431.282 305.996 431.801 309.426 438.473M327.753 416.361C326.035 417.904 323.764 422.498 328.392 428.543M301.009 421.205L301.07 421.222M316.182 413.261L316.243 413.277M336.729 421.769L336.79 421.785M298.797 441.63L298.858 441.646" stroke="#F583AF" stroke-opacity="0.14" stroke-width="3" stroke-linecap="round" stroke-linejoin="round"/>
<path d="M102.306 427.362L91.1504 428.88C77.0728 430.792 70.0355 431.751 68.7411 435.891C67.4466 440.03 73.0015 443.806 84.1144 451.368L92.9297 457.363C99.632 461.922 102.983 464.204 106.216 463.007C109.449 461.81 110.694 457.829 113.18 449.87L115.532 442.358C118.022 434.4 119.267 430.419 117.154 428.026C115.044 425.631 110.799 426.21 102.31 427.363M104.896 428.686L95.9516 457.292M88.3566 431.538L83.2454 447.884M125.492 448.609L138.026 451.419M139.245 434.631C138.005 436.686 133.74 440.217 126.597 437.925M129.274 466.519C129.398 464.214 127.755 459.359 120.208 458.358M144.759 444.183L144.705 444.214M139.648 460.529L139.593 460.561M119.103 469.042L119.048 469.074M131.881 428.177L131.826 428.208" stroke="#397BD8" stroke-opacity="0.1" stroke-width="3" stroke-linecap="round" stroke-linejoin="round"/>
<circle cx="134.822" cy="511.822" r="23.9238" transform="rotate(7.44367 134.822 511.822)" fill="#FCC6D4" fill-opacity="0.25"/>
<circle cx="185.449" cy="533.449" r="16.4557" transform="rotate(7.44367 185.449 533.449)" fill="#E6DDFF" fill-opacity="0.47"/>
<circle cx="172.07" cy="421.278" r="14.3343" transform="rotate(7.44367 172.07 421.278)" fill="#E6DDFF" fill-opacity="0.47"/>
<circle cx="208.987" cy="466.987" r="31.2075" transform="rotate(7.44367 208.987 466.987)" fill="#F7DDFF" fill-opacity="0.47"/>
<circle cx="318.584" cy="500.584" r="11.2247" transform="rotate(7.44367 318.584 500.584)" fill="#F7DDFF" fill-opacity="0.47"/>
<circle cx="33.2981" cy="557.298" r="13.6453" transform="rotate(7.44367 33.2981 557.298)" fill="#E6DDFF" fill-opacity="0.36"/>
<circle cx="71.2981" cy="631.298" r="13.6453" transform="rotate(7.44367 71.2981 631.298)" fill="#E6DDFF" fill-opacity="0.36"/>
<circle cx="17.5944" cy="485.594" r="12.1257" transform="rotate(7.44367 17.5944 485.594)" fill="#DDF2FF" fill-opacity="0.5"/>
<circle cx="42.5944" cy="391.594" r="12.1257" transform="rotate(7.44367 42.5944 391.594)" fill="#DDF2FF" fill-opacity="0.5"/>
<circle cx="77.5942" cy="403.594" r="12.1257" transform="rotate(7.44367 77.5942 403.594)" fill="#DDF2FF" fill-opacity="0.5"/>
<circle cx="188.469" cy="376.469" r="19.3767" transform="rotate(60 188.469 376.469)" fill="#1770F4" fill-opacity="0.06"/>
<circle cx="310.718" cy="375.718" r="17.3625" transform="rotate(60 310.718 375.718)" fill="#17AAF4" fill-opacity="0.1"/>
<circle cx="169.718" cy="175.718" r="17.3625" transform="rotate(60 169.718 175.718)" fill="#F017F4" fill-opacity="0.1"/>
<circle cx="254.718" cy="258.718" r="17.3625" transform="rotate(60 254.718 258.718)" fill="#F017F4" fill-opacity="0.1"/>
<circle cx="303.718" cy="326.718" r="17.3625" transform="rotate(60 303.718 326.718)" fill="#F017F4" fill-opacity="0.1"/>
<circle cx="343.718" cy="185.718" r="17.3625" transform="rotate(60 343.718 185.718)" fill="#F017F4" fill-opacity="0.1"/>
<circle cx="121.462" cy="226.462" r="23.7638" transform="rotate(60 121.462 226.462)" fill="#F417B2" fill-opacity="0.06"/>
<circle cx="162.462" cy="320.462" r="23.7638" transform="rotate(60 162.462 320.462)" fill="#F417B2" fill-opacity="0.06"/>
<circle cx="18.1564" cy="207.156" r="30.8606" transform="rotate(60 18.1564 207.156)" fill="#BD17F4" fill-opacity="0.06"/>
<circle cx="194.513" cy="248.513" r="36.2463" transform="rotate(60 194.513 248.513)" fill="#172AF4" fill-opacity="0.06"/>
<circle cx="242.513" cy="337.513" r="36.2463" transform="rotate(60 242.513 337.513)" fill="#7B17F4" fill-opacity="0.06"/>
<circle cx="66.548" cy="93.5478" r="30.4151" transform="rotate(60 66.548 93.5478)" fill="#F017F4" fill-opacity="0.06"/>
<circle cx="17.6747" cy="23.6746" r="26.1156" transform="rotate(60 17.6747 23.6746)" fill="#171BF4" fill-opacity="0.06"/>
<circle cx="276.462" cy="65.462" r="23.7638" transform="rotate(60 276.462 65.462)" fill="#F017F4" fill-opacity="0.1"/>
<circle cx="261.462" cy="-0.538033" r="23.7638" transform="rotate(60 261.462 -0.538033)" fill="#173CF4" fill-opacity="0.1"/>
<circle cx="363.779" cy="120.779" r="35.7087" transform="rotate(60 363.779 120.779)" fill="#F017F4" fill-opacity="0.07"/>
<circle cx="367.779" cy="339.779" r="35.7087" transform="rotate(60 367.779 339.779)" fill="#F017F4" fill-opacity="0.07"/>
<circle cx="261.449" cy="160.449" r="60.3568" transform="rotate(60 261.449 160.449)" fill="#74C6EE" fill-opacity="0.14"/>
<circle cx="64.4489" cy="308.449" r="60.3568" transform="rotate(60 64.4489 308.449)" fill="#74C6EE" fill-opacity="0.14"/>
<circle cx="328.691" cy="254.691" r="40.7689" transform="rotate(60 328.691 254.691)" fill="#8E74EE" fill-opacity="0.14"/>
<path d="M78.6055 157.355L74.3422 167.775C68.9595 180.923 66.271 187.497 69.2089 190.688C72.1468 193.878 78.1936 190.955 90.2989 185.112L99.8985 180.476C107.198 176.951 110.85 175.19 111.43 171.791C112.01 168.393 109.185 165.325 103.535 159.192L98.2048 153.399C92.5582 147.263 89.7334 144.195 86.6041 144.828C83.4748 145.458 81.8536 149.424 78.6084 157.352M81.0474 155.774L101.349 177.823M75.2471 171.524L86.8477 184.123M108.599 147.899L117.299 138.45M103.37 129C104.53 131.101 105.455 136.56 99.8985 141.6M126 153.579C124.066 152.319 119.04 151.314 114.399 157.349M114.399 129V129.063M126 141.6V141.663M123.1 163.649V163.712M94.0982 132.15V132.213" stroke="#F583AF" stroke-opacity="0.14" stroke-width="3" stroke-linecap="round" stroke-linejoin="round"/>
<path d="M319.134 50.1185L328.095 56.9334C339.402 65.5355 345.056 69.8338 348.898 67.8219C352.741 65.81 351.483 59.2126 348.972 46.0075L346.978 35.535C345.462 27.5717 344.706 23.5891 341.574 22.1492C338.441 20.7092 334.746 22.6437 327.36 26.5134L320.385 30.1631C312.997 34.0292 309.302 35.9636 309.104 39.1501C308.903 42.3358 312.314 44.9282 319.132 50.1149M318.239 47.3505L344.791 33.4479M331.95 57.0295L347.123 49.0851M317.763 18.6996L310.887 7.8498M298.154 18.8589C300.484 18.2821 305.996 18.8013 309.426 25.4731M327.753 3.36142C326.035 4.90381 323.764 9.49848 328.392 15.5427M301.009 8.20539L301.07 8.22169M316.182 0.26101L316.243 0.277315M336.729 8.76913L336.79 8.78543M298.797 28.6301L298.858 28.6464" stroke="#F583AF" stroke-opacity="0.14" stroke-width="3" stroke-linecap="round" stroke-linejoin="round"/>
<path d="M102.306 14.3623L91.1504 15.8801C77.0728 17.7924 70.0355 18.751 68.7411 22.8907C67.4466 27.0304 73.0015 30.8056 84.1144 38.3675L92.9297 44.3627C99.632 48.9221 102.983 51.2038 106.216 50.0068C109.449 48.8097 110.694 44.8294 113.18 36.8703L115.532 29.3577C118.022 21.3995 119.267 17.4192 117.154 15.0257C115.044 12.6307 110.799 13.2096 102.31 14.3632M104.896 15.6864L95.9516 44.2924M88.3566 18.5379L83.2454 34.8842M125.492 35.6094L138.026 38.4195M139.245 21.6313C138.005 23.6864 133.74 27.217 126.597 24.9247M129.274 53.5188C129.398 51.2136 127.755 46.3585 120.208 45.3575M144.759 31.183L144.705 31.2145M139.648 47.5293L139.593 47.5608M119.103 56.0423L119.048 56.0738M131.881 15.1766L131.826 15.2081" stroke="#397BD8" stroke-opacity="0.1" stroke-width="3" stroke-linecap="round" stroke-linejoin="round"/>
<circle cx="134.822" cy="98.8216" r="23.9238" transform="rotate(7.44367 134.822 98.8216)" fill="#FCC6D4" fill-opacity="0.25"/>
<circle cx="185.449" cy="120.449" r="16.4557" transform="rotate(7.44367 185.449 120.449)" fill="#E6DDFF" fill-opacity="0.47"/>
<circle cx="174.449" cy="6.44891" r="16.4557" transform="rotate(7.44367 174.449 6.44891)" fill="#E6DDFF" fill-opacity="0.47"/>
<circle cx="208.987" cy="53.9874" r="31.2075" transform="rotate(7.44367 208.987 53.9874)" fill="#F7DDFF" fill-opacity="0.47"/>
<circle cx="318.584" cy="87.5843" r="11.2247" transform="rotate(7.44367 318.584 87.5843)" fill="#F7DDFF" fill-opacity="0.47"/>
<circle cx="33.2981" cy="144.298" r="13.6453" transform="rotate(7.44367 33.2981 144.298)" fill="#E6DDFF" fill-opacity="0.36"/>
<circle cx="71.2981" cy="218.298" r="13.6453" transform="rotate(7.44367 71.2981 218.298)" fill="#E6DDFF" fill-opacity="0.36"/>
<circle cx="17.5944" cy="72.5944" r="12.1257" transform="rotate(7.44367 17.5944 72.5944)" fill="#DDF2FF" fill-opacity="0.5"/>
</svg>
