<svg width="337" height="198" viewBox="0 0 337 198" fill="none" xmlns="http://www.w3.org/2000/svg">
<path d="M276.052 0C275.935 0.331255 275.821 0.664375 275.714 1H42C19.3563 1 1 19.3563 1 42V156C1 178.644 19.3563 197 42 197H295C317.644 197 336 178.644 336 156V42C336 40.3718 335.901 38.7662 335.717 37.1875C336.018 36.8796 336.316 36.5676 336.606 36.249C336.864 38.1294 337 40.0489 337 42V156C337 178.834 318.779 197.411 296.084 197.986L295 198H42C19.1665 198 0.588625 179.779 0.0136719 157.084L0 156V42C0 18.804 18.804 3.2213e-08 42 0H276.052Z" fill="#C9185C"/>
</svg>
