<svg width="19" height="15" viewBox="0 0 19 15" fill="none" xmlns="http://www.w3.org/2000/svg">
<path d="M1 6.36395C0.447715 6.36395 -4.82823e-08 6.81167 0 7.36395C4.82823e-08 7.91624 0.447715 8.36395 1 8.36395L1 7.36395L1 6.36395ZM18.7071 8.07106C19.0976 7.68053 19.0976 7.04737 18.7071 6.65684L12.3431 0.292884C11.9526 -0.0976405 11.3195 -0.0976405 10.9289 0.292884C10.5384 0.683408 10.5384 1.31657 10.9289 1.7071L16.5858 7.36395L10.9289 13.0208C10.5384 13.4113 10.5384 14.0445 10.9289 14.435C11.3195 14.8255 11.9526 14.8255 12.3431 14.435L18.7071 8.07106ZM1 7.36395L1 8.36395L18 8.36395L18 7.36395L18 6.36395L1 6.36395L1 7.36395Z" fill="white"/>
</svg>
