<svg width="107" height="144" viewBox="0 0 107 144" fill="none" xmlns="http://www.w3.org/2000/svg">
<path d="M1.01562 19.4661C1.01562 20.9853 2.22897 22.2164 3.72628 22.2164V20.2083C3.32184 20.2083 2.99484 19.8765 2.99484 19.4661H1.01562ZM8.76036 24.2682C8.76036 29.6465 13.0544 34.0033 18.3552 34.0033V31.9951C14.1473 31.9951 10.7396 28.5376 10.7396 24.2682H8.76036ZM2.99484 7.24268C2.99484 4.90277 4.86218 3.00814 7.16839 3.00814V1C3.76931 1 1.01562 3.79393 1.01562 7.24268H2.99484ZM54.4973 3.00814C56.8035 3.00814 58.6709 4.90277 58.6709 7.24268H60.6501C60.6501 3.79393 57.8964 1 54.4973 1V3.00814ZM57.9394 22.2164C59.4368 22.2164 60.6501 20.9853 60.6501 19.4661H58.6709C58.6709 19.8765 58.3439 20.2083 57.9394 20.2083V22.2164ZM43.3105 34.0033C48.6113 34.0033 52.9054 29.6465 52.9054 24.2682H50.9262C50.9262 28.5376 47.5185 31.9951 43.3105 31.9951V34.0033ZM105.699 9.29447H94.9421V11.3026H105.699V9.29447ZM95.9317 142.5V10.2985H93.9525V143L95.9317 142.5ZM95.9317 23.8316V10.2985H93.9525V23.8316H95.9317ZM93.9525 23.8316V143L95.9317 142.5V23.8316H93.9525ZM78.5921 12.6123C84.5985 12.6123 88.3935 13.3893 90.6997 15.0919C92.9112 16.7246 93.9525 19.3875 93.9525 23.8316H95.9317C95.9317 19.0994 94.8216 15.6507 91.87 13.4679C89.013 11.355 84.6416 10.6041 78.5921 10.6041V12.6123ZM59.6605 12.6123H78.5921V10.6041H59.6605V12.6123ZM58.6709 11.6082V19.4661H60.6501V11.6082H58.6709ZM58.6709 7.24268V11.6082H60.6501V7.24268H58.6709ZM52.9054 24.2682V21.2123H50.9262V24.2682H52.9054ZM51.9158 20.2083H9.74997V22.2164H51.9158V20.2083ZM57.9394 20.2083H51.9158V22.2164H57.9394V20.2083ZM18.3552 34.0033H43.3105V31.9951H18.3552V34.0033ZM8.76036 21.2123V24.2682H10.7396V21.2123H8.76036ZM9.74997 20.2083H3.72628V22.2164H9.74997V20.2083ZM7.16839 3.00814H54.4973V1H7.16839V3.00814ZM2.99484 19.4661V7.24268H1.01562V19.4661H2.99484ZM94.9421 10.2985V9.29447H93.9525V10.2985H94.9421Z" fill="white"/>
<path d="M1.01562 19.4661C1.01562 20.9853 2.22897 22.2164 3.72628 22.2164M1.01562 19.4661H2.99484M1.01562 19.4661V7.24268M3.72628 22.2164V20.2083M3.72628 22.2164H9.74997M3.72628 20.2083C3.32184 20.2083 2.99484 19.8765 2.99484 19.4661M3.72628 20.2083H9.74997M2.99484 19.4661V7.24268M8.76036 24.2682C8.76036 29.6465 13.0544 34.0033 18.3552 34.0033M8.76036 24.2682H10.7396M8.76036 24.2682V21.2123H10.7396V24.2682M18.3552 34.0033V31.9951M18.3552 34.0033H43.3105M18.3552 31.9951C14.1473 31.9951 10.7396 28.5376 10.7396 24.2682M18.3552 31.9951H43.3105M2.99484 7.24268C2.99484 4.90277 4.86218 3.00814 7.16839 3.00814M2.99484 7.24268H1.01562M7.16839 3.00814V1M7.16839 3.00814H54.4973M7.16839 1C3.76931 1 1.01562 3.79393 1.01562 7.24268M7.16839 1H54.4973M54.4973 3.00814C56.8035 3.00814 58.6709 4.90277 58.6709 7.24268M54.4973 3.00814V1M58.6709 7.24268H60.6501M58.6709 7.24268V11.6082M60.6501 7.24268C60.6501 3.79393 57.8964 1 54.4973 1M60.6501 7.24268V11.6082M57.9394 22.2164C59.4368 22.2164 60.6501 20.9853 60.6501 19.4661M57.9394 22.2164V20.2083M57.9394 22.2164H51.9158M60.6501 19.4661H58.6709M60.6501 19.4661V11.6082M58.6709 19.4661C58.6709 19.8765 58.3439 20.2083 57.9394 20.2083M58.6709 19.4661V11.6082M57.9394 20.2083H51.9158M43.3105 34.0033C48.6113 34.0033 52.9054 29.6465 52.9054 24.2682M43.3105 34.0033V31.9951M52.9054 24.2682H50.9262M52.9054 24.2682V21.2123H50.9262V24.2682M50.9262 24.2682C50.9262 28.5376 47.5185 31.9951 43.3105 31.9951M94.9421 9.29447H105.699V11.3026H94.9421V9.29447ZM94.9421 9.29447V10.2985H93.9525M94.9421 9.29447H93.9525V10.2985M95.9317 142.5V10.2985M95.9317 142.5L93.9525 143M95.9317 142.5V23.8316M95.9317 10.2985H93.9525M95.9317 10.2985V23.8316M93.9525 10.2985V143M93.9525 10.2985V23.8316M93.9525 143V23.8316M95.9317 23.8316H93.9525M95.9317 23.8316C95.9317 19.0994 94.8216 15.6507 91.87 13.4679C89.013 11.355 84.6416 10.6041 78.5921 10.6041M93.9525 23.8316C93.9525 19.3875 92.9112 16.7246 90.6997 15.0919C88.3935 13.3893 84.5985 12.6123 78.5921 12.6123M78.5921 12.6123V10.6041M78.5921 12.6123H59.6605V10.6041H78.5921M58.6709 11.6082H60.6501M51.9158 20.2083H9.74997M51.9158 20.2083V22.2164M9.74997 20.2083V22.2164M9.74997 22.2164H51.9158" stroke="white" stroke-miterlimit="10"/>
</svg>
