<svg width="56" height="56" viewBox="0 0 56 56" fill="none" xmlns="http://www.w3.org/2000/svg">
<path d="M9.7736 7.0733C21.0763 -2.73156 38.285 -1.41974 48.2091 10.0201C58.1331 21.4601 57.0023 38.6823 45.6996 48.4873C34.3968 58.2923 17.1876 56.9798 7.26348 45.5398C-2.66041 34.0997 -1.52914 16.8782 9.7736 7.0733Z" stroke="#397BD8"/>
<path d="M9.7736 7.0733C21.0763 -2.73156 38.285 -1.41974 48.2091 10.0201C58.1331 21.4601 57.0023 38.6823 45.6996 48.4873C34.3968 58.2923 17.1876 56.9798 7.26348 45.5398C-2.66041 34.0997 -1.52914 16.8782 9.7736 7.0733Z" stroke="#397BD8"/>
<path d="M9.7736 7.0733C21.0763 -2.73156 38.285 -1.41974 48.2091 10.0201C58.1331 21.4601 57.0023 38.6823 45.6996 48.4873C34.3968 58.2923 17.1876 56.9798 7.26348 45.5398C-2.66041 34.0997 -1.52914 16.8782 9.7736 7.0733Z" stroke="#397BD8"/>
<path d="M9.7736 7.0733C21.0763 -2.73156 38.285 -1.41974 48.2091 10.0201C58.1331 21.4601 57.0023 38.6823 45.6996 48.4873C34.3968 58.2923 17.1876 56.9798 7.26348 45.5398C-2.66041 34.0997 -1.52914 16.8782 9.7736 7.0733Z" stroke="#397BD8"/>
<path d="M9.7736 7.0733C21.0763 -2.73156 38.285 -1.41974 48.2091 10.0201C58.1331 21.4601 57.0023 38.6823 45.6996 48.4873C34.3968 58.2923 17.1876 56.9798 7.26348 45.5398C-2.66041 34.0997 -1.52914 16.8782 9.7736 7.0733Z" stroke="#397BD8"/>
</svg>
