<svg width="69" height="27" viewBox="0 0 69 27" fill="none" xmlns="http://www.w3.org/2000/svg">
<path d="M8.34 22.584C8.756 22.6 9.152 22.548 9.528 22.428C9.904 22.308 10.26 22.144 10.596 21.936C10.652 21.904 10.716 21.876 10.788 21.852C10.868 21.828 10.944 21.812 11.016 21.804C11.096 21.796 11.168 21.796 11.232 21.804C11.296 21.812 11.344 21.832 11.376 21.864C11.464 21.952 11.56 22.076 11.664 22.236C11.776 22.396 11.856 22.568 11.904 22.752C11.928 22.832 11.94 22.896 11.94 22.944C11.94 22.992 11.892 23.04 11.796 23.088C11.268 23.288 10.756 23.456 10.26 23.592C9.764 23.728 9.292 23.832 8.844 23.904C8.612 23.944 8.38 23.964 8.148 23.964C7.916 23.964 7.684 23.972 7.452 23.988C6.94 24.02 6.452 23.956 5.988 23.796C5.524 23.636 5.112 23.404 4.752 23.1C4.4 22.788 4.112 22.416 3.888 21.984C3.664 21.552 3.536 21.08 3.504 20.568C3.448 19.976 3.476 19.452 3.588 18.996C3.708 18.532 3.872 18.128 4.08 17.784C4.296 17.432 4.544 17.136 4.824 16.896C5.104 16.656 5.38 16.46 5.652 16.308C5.924 16.148 6.172 16.028 6.396 15.948C6.628 15.868 6.804 15.812 6.924 15.78C7.404 15.66 7.9 15.596 8.412 15.588C8.932 15.572 9.432 15.608 9.912 15.696C10.096 15.736 10.276 15.8 10.452 15.888C10.628 15.976 10.8 16.076 10.968 16.188C11.144 16.3 11.316 16.416 11.484 16.536C11.652 16.656 11.82 16.768 11.988 16.872C12.036 16.896 12.076 16.952 12.108 17.04C12.14 17.12 12.148 17.172 12.132 17.196C12.092 17.244 12.044 17.308 11.988 17.388C11.94 17.468 11.888 17.548 11.832 17.628C11.776 17.7 11.716 17.768 11.652 17.832C11.596 17.888 11.54 17.92 11.484 17.928C11.372 17.944 11.228 17.916 11.052 17.844C10.876 17.764 10.676 17.672 10.452 17.568C10.236 17.464 9.996 17.368 9.732 17.28C9.476 17.192 9.212 17.148 8.94 17.148C8.876 17.148 8.804 17.148 8.724 17.148C8.652 17.14 8.584 17.144 8.52 17.16C8.456 17.176 8.404 17.212 8.364 17.268C8.324 17.324 8.304 17.412 8.304 17.532C8.288 18.316 8.28 19.116 8.28 19.932C8.28 20.74 8.272 21.54 8.256 22.332C8.256 22.364 8.264 22.4 8.28 22.44C8.296 22.472 8.316 22.52 8.34 22.584ZM21.1774 18.672C21.1774 18.728 21.1774 18.892 21.1774 19.164C21.1854 19.428 21.1894 19.748 21.1894 20.124C21.1974 20.492 21.2014 20.888 21.2014 21.312C21.2094 21.728 21.2134 22.12 21.2134 22.488C21.2214 22.848 21.2254 23.152 21.2254 23.4C21.2254 23.648 21.2254 23.788 21.2254 23.82C21.2174 23.844 21.1814 23.872 21.1174 23.904C21.0614 23.928 21.0094 23.94 20.9614 23.94C20.8894 23.94 20.7574 23.94 20.5654 23.94C20.3734 23.94 20.1534 23.94 19.9054 23.94C19.6574 23.94 19.3934 23.94 19.1134 23.94C18.8414 23.94 18.5854 23.94 18.3454 23.94C18.1134 23.94 17.9134 23.94 17.7454 23.94C17.5774 23.94 17.4734 23.94 17.4334 23.94C17.3374 23.94 17.2734 23.872 17.2414 23.736C17.2174 23.592 17.2054 23.42 17.2054 23.22C17.2054 23.012 17.2094 22.788 17.2174 22.548C17.2334 22.3 17.2414 22.072 17.2414 21.864C17.2414 21.656 17.2254 21.484 17.1934 21.348C17.1614 21.204 17.0974 21.132 17.0014 21.132C16.4014 21.116 15.8854 21.104 15.4534 21.096C15.0294 21.088 14.6734 21.08 14.3854 21.072C14.0974 21.064 13.8694 21.052 13.7014 21.036C13.5334 21.012 13.4054 20.984 13.3174 20.952C13.2294 20.912 13.1694 20.86 13.1374 20.796C13.1054 20.724 13.0814 20.636 13.0654 20.532C13.0414 20.38 13.0214 20.204 13.0054 20.004C12.9894 19.804 12.9734 19.6 12.9574 19.392C12.9494 19.176 12.9454 18.968 12.9454 18.768C12.9454 18.568 12.9494 18.392 12.9574 18.24C12.9654 18.136 12.9654 17.984 12.9574 17.784C12.9574 17.584 12.9534 17.38 12.9454 17.172C12.9454 16.956 12.9414 16.752 12.9334 16.56C12.9334 16.36 12.9334 16.208 12.9334 16.104C12.9414 16.048 12.9454 15.98 12.9454 15.9C12.9454 15.82 12.9694 15.76 13.0174 15.72C13.0494 15.704 13.1534 15.684 13.3294 15.66C13.5054 15.628 13.6934 15.604 13.8934 15.588C14.1254 15.564 14.3854 15.54 14.6734 15.516C14.7614 15.516 14.8134 15.564 14.8294 15.66C14.8294 15.796 14.8294 15.98 14.8294 16.212C14.8294 16.444 14.8294 16.684 14.8294 16.932C14.8294 17.172 14.8294 17.408 14.8294 17.64C14.8294 17.872 14.8294 18.056 14.8294 18.192C14.8294 18.312 14.8294 18.464 14.8294 18.648C14.8374 18.824 14.8494 18.996 14.8654 19.164C14.8814 19.332 14.9094 19.476 14.9494 19.596C14.9974 19.708 15.0654 19.76 15.1534 19.752C15.1854 19.752 15.3014 19.756 15.5014 19.764C15.7014 19.764 15.9214 19.768 16.1614 19.776C16.4094 19.784 16.6494 19.796 16.8814 19.812C17.1134 19.82 17.2854 19.832 17.3974 19.848C17.3974 19.84 17.3974 19.756 17.3974 19.596C17.3974 19.428 17.3974 19.224 17.3974 18.984C17.3974 18.744 17.3974 18.48 17.3974 18.192C17.4054 17.904 17.4094 17.628 17.4094 17.364C17.4094 17.1 17.4134 16.868 17.4214 16.668C17.4294 16.468 17.4374 16.328 17.4454 16.248C17.4534 16.168 17.4534 16.088 17.4454 16.008C17.4374 15.928 17.4414 15.852 17.4574 15.78C17.4654 15.748 17.5014 15.716 17.5654 15.684C17.6294 15.644 17.6854 15.624 17.7334 15.624C17.8534 15.616 18.0494 15.612 18.3214 15.612C18.5934 15.604 18.8734 15.6 19.1614 15.6C19.4574 15.6 19.7254 15.6 19.9654 15.6C20.2134 15.592 20.3734 15.588 20.4454 15.588C20.6374 15.588 20.7854 15.588 20.8894 15.588C21.0014 15.588 21.0814 15.608 21.1294 15.648C21.1774 15.68 21.2054 15.736 21.2134 15.816C21.2214 15.888 21.2254 15.996 21.2254 16.14C21.2254 16.252 21.2214 16.428 21.2134 16.668C21.2134 16.9 21.2094 17.148 21.2014 17.412C21.2014 17.668 21.1974 17.916 21.1894 18.156C21.1814 18.388 21.1774 18.56 21.1774 18.672ZM26.5283 15.648C26.8883 15.648 27.2443 15.648 27.5963 15.648C27.9563 15.648 28.3163 15.644 28.6763 15.636C28.8523 15.636 28.9803 15.644 29.0603 15.66C29.1403 15.668 29.1963 15.696 29.2283 15.744C29.2683 15.792 29.3003 15.864 29.3243 15.96C29.3563 16.048 29.4043 16.168 29.4683 16.32C29.6763 16.824 29.8803 17.324 30.0803 17.82C30.2803 18.316 30.4763 18.816 30.6683 19.32C30.9163 19.936 31.1603 20.548 31.4003 21.156C31.6403 21.764 31.8683 22.38 32.0843 23.004C32.1003 23.06 32.1283 23.132 32.1683 23.22C32.2083 23.3 32.2443 23.384 32.2763 23.472C32.3083 23.56 32.3283 23.644 32.3363 23.724C32.3443 23.796 32.3283 23.848 32.2883 23.88C32.2243 23.936 32.1323 23.976 32.0123 24C31.9003 24.016 31.7803 24.028 31.6523 24.036C31.5243 24.044 31.3963 24.044 31.2683 24.036C31.1483 24.028 31.0483 24.02 30.9683 24.012C30.5683 23.996 30.1483 23.988 29.7083 23.988C29.2763 23.988 28.8603 23.988 28.4603 23.988C28.1883 23.988 27.9923 23.976 27.8723 23.952C27.7523 23.92 27.6643 23.868 27.6083 23.796C27.5603 23.724 27.5243 23.624 27.5003 23.496C27.4763 23.368 27.4243 23.2 27.3443 22.992C27.2563 22.688 27.1363 22.508 26.9843 22.452C26.8323 22.388 26.6243 22.388 26.3603 22.452C26.0563 22.516 25.7443 22.556 25.4243 22.572C25.1123 22.588 24.8003 22.6 24.4883 22.608C24.3683 22.608 24.2683 22.616 24.1883 22.632C24.1083 22.64 24.0443 22.684 23.9963 22.764C23.9563 22.844 23.9283 22.968 23.9123 23.136C23.8963 23.304 23.8883 23.544 23.8883 23.856C23.8803 23.88 23.8283 23.9 23.7323 23.916C23.6443 23.932 23.5283 23.944 23.3843 23.952C23.2403 23.96 23.0843 23.964 22.9163 23.964C22.7563 23.964 22.6083 23.96 22.4723 23.952C22.3363 23.936 22.2203 23.916 22.1243 23.892C22.0363 23.86 21.9923 23.824 21.9923 23.784C22.0723 23.4 22.1763 22.988 22.3043 22.548C22.4323 22.1 22.5683 21.652 22.7123 21.204C22.8563 20.756 23.0083 20.316 23.1683 19.884C23.3283 19.444 23.4843 19.04 23.6363 18.672C23.8043 18.272 23.9523 17.868 24.0803 17.46C24.2163 17.052 24.3483 16.64 24.4763 16.224C24.5163 16.08 24.5483 15.968 24.5723 15.888C24.6043 15.8 24.6403 15.74 24.6803 15.708C24.7283 15.668 24.7883 15.648 24.8603 15.648C24.9323 15.64 25.0323 15.636 25.1603 15.636C25.3843 15.644 25.6123 15.648 25.8443 15.648C26.0763 15.648 26.3043 15.648 26.5283 15.648ZM26.6483 21.132C26.5923 20.844 26.5203 20.564 26.4323 20.292C26.3443 20.012 26.2443 19.764 26.1323 19.548C26.0283 19.332 25.9123 19.156 25.7843 19.02C25.6643 18.884 25.5363 18.808 25.4003 18.792C25.3523 18.952 25.2963 19.128 25.2323 19.32C25.1763 19.512 25.1123 19.712 25.0403 19.92C24.9763 20.12 24.9083 20.324 24.8363 20.532C24.7723 20.74 24.7122 20.94 24.6562 21.132C24.7923 21.14 24.9443 21.144 25.1123 21.144C25.2883 21.136 25.4683 21.132 25.6523 21.132C25.8363 21.132 26.0123 21.132 26.1803 21.132C26.3563 21.124 26.5123 21.124 26.6483 21.132ZM37.2379 22.62C37.6539 22.636 38.0499 22.584 38.4259 22.464C38.8019 22.344 39.1579 22.18 39.4939 21.972C39.5499 21.94 39.6139 21.912 39.6859 21.888C39.7659 21.864 39.8419 21.848 39.9139 21.84C39.9939 21.832 40.0659 21.832 40.1299 21.84C40.1939 21.848 40.2419 21.868 40.2739 21.9C40.3619 21.988 40.4579 22.112 40.5619 22.272C40.6739 22.432 40.7539 22.604 40.8019 22.788C40.8259 22.868 40.8379 22.932 40.8379 22.98C40.8379 23.028 40.7899 23.076 40.6939 23.124C40.1659 23.324 39.6539 23.492 39.1579 23.628C38.6619 23.764 38.1899 23.868 37.7419 23.94C37.5099 23.98 37.2779 24 37.0459 24C36.8139 24 36.5819 24.008 36.3499 24.024C35.8379 24.056 35.3499 23.992 34.8859 23.832C34.4219 23.672 34.0099 23.44 33.6499 23.136C33.2979 22.824 33.0099 22.452 32.7859 22.02C32.5619 21.588 32.4339 21.116 32.4019 20.604C32.3459 20.012 32.3739 19.488 32.4859 19.032C32.6059 18.568 32.7699 18.164 32.9779 17.82C33.1939 17.468 33.4419 17.172 33.7219 16.932C34.0019 16.692 34.2779 16.496 34.5499 16.344C34.8219 16.184 35.0739 16.064 35.3059 15.984C35.5379 15.904 35.7099 15.848 35.8219 15.816C36.3019 15.696 36.7979 15.632 37.3099 15.624C37.8299 15.608 38.3299 15.644 38.8099 15.732C38.9939 15.772 39.1739 15.836 39.3499 15.924C39.5259 16.012 39.6979 16.112 39.8659 16.224C40.0419 16.336 40.2139 16.452 40.3819 16.572C40.5499 16.692 40.7179 16.804 40.8859 16.908C40.9339 16.932 40.9739 16.988 41.0059 17.076C41.0379 17.156 41.0459 17.208 41.0299 17.232C40.9899 17.28 40.9419 17.344 40.8859 17.424C40.8379 17.504 40.7859 17.584 40.7299 17.664C40.6739 17.736 40.6139 17.804 40.5499 17.868C40.4939 17.924 40.4379 17.956 40.3819 17.964C40.2699 17.98 40.1259 17.952 39.9499 17.88C39.7739 17.8 39.5739 17.708 39.3499 17.604C39.1339 17.5 38.8939 17.404 38.6299 17.316C38.3739 17.228 38.1099 17.184 37.8379 17.184C37.7739 17.184 37.7019 17.184 37.6219 17.184C37.5499 17.176 37.4819 17.18 37.4179 17.196C37.3539 17.212 37.3019 17.248 37.2619 17.304C37.2219 17.36 37.2019 17.448 37.2019 17.568C37.1859 18.352 37.1779 19.152 37.1779 19.968C37.1779 20.776 37.1699 21.576 37.1539 22.368C37.1539 22.4 37.1619 22.436 37.1779 22.476C37.1939 22.508 37.2139 22.556 37.2379 22.62ZM49.7421 15.768C49.7581 15.952 49.7661 16.152 49.7661 16.368C49.7741 16.584 49.7781 16.804 49.7781 17.028C49.7861 17.252 49.7901 17.468 49.7901 17.676C49.7981 17.884 49.8101 18.064 49.8261 18.216C49.8341 18.272 49.7981 18.34 49.7181 18.42C49.6461 18.5 49.5781 18.548 49.5141 18.564C49.1941 18.628 48.8701 18.652 48.5421 18.636C48.2221 18.612 47.8981 18.616 47.5701 18.648C47.4421 18.664 47.3381 18.676 47.2581 18.684C47.1861 18.692 47.1261 18.716 47.0781 18.756C47.0381 18.796 47.0101 18.864 46.9941 18.96C46.9861 19.056 46.9861 19.196 46.9941 19.38C47.0021 19.612 47.0141 19.884 47.0301 20.196C47.0461 20.5 47.0621 20.816 47.0781 21.144C47.1021 21.472 47.1221 21.796 47.1381 22.116C47.1621 22.436 47.1821 22.728 47.1981 22.992C47.2141 23.256 47.2221 23.48 47.2221 23.664C47.2301 23.848 47.2301 23.96 47.2221 24C47.1261 24 47.0101 24 46.8741 24C46.7461 23.992 46.6141 23.988 46.4781 23.988C46.3501 23.988 46.2221 23.988 46.0941 23.988C45.9741 23.98 45.8661 23.972 45.7701 23.964C45.7061 23.956 45.6141 23.932 45.4941 23.892C45.3821 23.852 45.3221 23.804 45.3141 23.748C45.2981 23.316 45.2821 22.92 45.2661 22.56C45.2581 22.2 45.2501 21.86 45.2421 21.54C45.2341 21.22 45.2301 20.904 45.2301 20.592C45.2301 20.28 45.2301 19.956 45.2301 19.62C45.2301 19.34 45.2221 19.144 45.2061 19.032C45.1901 18.912 45.1461 18.84 45.0741 18.816C45.0101 18.792 44.9061 18.796 44.7621 18.828C44.6261 18.852 44.4301 18.868 44.1741 18.876C43.8941 18.884 43.6261 18.9 43.3701 18.924C43.1221 18.94 42.8581 18.948 42.5781 18.948C42.5141 18.948 42.4461 18.912 42.3741 18.84C42.3101 18.76 42.2701 18.688 42.2541 18.624C42.2141 18.432 42.1741 18.224 42.1341 18C42.1021 17.776 42.0701 17.548 42.0381 17.316C42.0061 17.084 41.9741 16.86 41.9421 16.644C41.9101 16.42 41.8781 16.212 41.8461 16.02C41.8141 15.836 41.8381 15.716 41.9181 15.66C41.9981 15.596 42.1141 15.568 42.2661 15.576C42.4021 15.584 42.6701 15.596 43.0701 15.612C43.4701 15.62 43.9341 15.632 44.4621 15.648C44.9901 15.656 45.5461 15.668 46.1301 15.684C46.7141 15.7 47.2581 15.716 47.7621 15.732C48.2741 15.74 48.7101 15.748 49.0701 15.756C49.4381 15.764 49.6621 15.768 49.7421 15.768ZM54.8354 18.144C55.1874 18.216 55.4914 18.308 55.7474 18.42C56.0114 18.532 56.2314 18.644 56.4074 18.756C56.5834 18.868 56.7194 18.972 56.8154 19.068C56.9194 19.164 56.9914 19.228 57.0314 19.26C57.3194 19.556 57.5154 19.888 57.6194 20.256C57.7234 20.616 57.7314 20.976 57.6434 21.336C57.5954 21.544 57.5394 21.74 57.4754 21.924C57.4114 22.1 57.3234 22.268 57.2114 22.428C57.1074 22.588 56.9714 22.748 56.8034 22.908C56.6354 23.06 56.4194 23.212 56.1554 23.364C55.9154 23.492 55.6274 23.596 55.2914 23.676C54.9554 23.748 54.5994 23.808 54.2234 23.856C53.8474 23.896 53.4634 23.92 53.0714 23.928C52.6874 23.936 52.3234 23.944 51.9794 23.952C51.6434 23.952 51.3434 23.952 51.0794 23.952C50.8154 23.944 50.6234 23.944 50.5034 23.952C50.5194 23.696 50.5314 23.46 50.5394 23.244C50.5554 23.028 50.5674 22.816 50.5754 22.608C50.5914 22.12 50.6074 21.636 50.6234 21.156C50.6394 20.676 50.6554 20.192 50.6714 19.704C50.6794 19.336 50.6834 18.968 50.6834 18.6C50.6914 18.232 50.7034 17.86 50.7194 17.484C50.7354 17.212 50.7354 16.908 50.7194 16.572C50.7114 16.228 50.7274 15.92 50.7674 15.648C50.7674 15.624 50.8354 15.608 50.9714 15.6C51.1074 15.584 51.2634 15.576 51.4394 15.576C51.6154 15.568 51.7874 15.564 51.9554 15.564C52.1234 15.556 52.2434 15.552 52.3154 15.552C52.6194 15.552 52.7594 15.704 52.7354 16.008C52.7114 16.264 52.6954 16.516 52.6874 16.764C52.6794 17.012 52.6714 17.264 52.6634 17.52C52.6554 17.584 52.6594 17.652 52.6754 17.724C52.6914 17.796 52.7194 17.84 52.7594 17.856C52.9354 17.92 53.1994 17.96 53.5514 17.976C53.9114 17.984 54.3394 18.04 54.8354 18.144ZM65.7453 23.832C65.4413 23.864 65.1733 23.896 64.9413 23.928C64.7173 23.952 64.4973 23.968 64.2813 23.976C64.1293 23.984 64.0053 23.964 63.9093 23.916C63.8133 23.86 63.7653 23.708 63.7653 23.46C63.7733 23.06 63.7733 22.732 63.7653 22.476C63.7653 22.212 63.7573 21.972 63.7413 21.756C63.7173 21.668 63.6773 21.604 63.6213 21.564C63.5653 21.524 63.4693 21.496 63.3333 21.48C63.2053 21.456 63.0293 21.436 62.8053 21.42C62.5813 21.404 62.2893 21.376 61.9293 21.336C61.7613 21.32 61.6333 21.32 61.5453 21.336C61.4653 21.344 61.4013 21.372 61.3533 21.42C61.3133 21.468 61.2813 21.532 61.2573 21.612C61.2413 21.692 61.2133 21.792 61.1733 21.912C61.1253 22.056 61.0613 22.244 60.9813 22.476C60.9093 22.708 60.8293 22.932 60.7413 23.148C60.6613 23.364 60.5773 23.552 60.4893 23.712C60.4013 23.864 60.3253 23.94 60.2613 23.94C60.1813 23.932 60.0693 23.924 59.9253 23.916C59.7813 23.908 59.6293 23.9 59.4693 23.892C59.3173 23.884 59.1693 23.876 59.0253 23.868C58.8813 23.852 58.7693 23.84 58.6893 23.832C58.6973 23.776 58.7213 23.688 58.7613 23.568C58.8013 23.44 58.8533 23.296 58.9173 23.136C58.9813 22.976 59.0493 22.808 59.1213 22.632C59.1933 22.448 59.2613 22.272 59.3253 22.104C59.3973 21.936 59.4613 21.78 59.5173 21.636C59.5813 21.492 59.6293 21.376 59.6613 21.288C59.7173 21.144 59.7573 21.032 59.7813 20.952C59.8053 20.872 59.8093 20.804 59.7933 20.748C59.7773 20.692 59.7333 20.64 59.6613 20.592C59.5893 20.544 59.4853 20.48 59.3493 20.4C59.1813 20.304 59.0173 20.14 58.8573 19.908C58.7053 19.676 58.5853 19.408 58.4973 19.104C58.4173 18.792 58.3893 18.468 58.4133 18.132C58.4373 17.796 58.5533 17.476 58.7613 17.172C58.9373 16.916 59.1213 16.716 59.3133 16.572C59.5053 16.42 59.7173 16.288 59.9493 16.176C60.2693 16.032 60.5853 15.92 60.8973 15.84C61.2173 15.752 61.5413 15.688 61.8693 15.648C62.2053 15.608 62.5493 15.588 62.9013 15.588C63.2613 15.58 63.6413 15.58 64.0413 15.588C64.1213 15.588 64.2613 15.596 64.4613 15.612C64.6613 15.62 64.8653 15.644 65.0733 15.684C65.2813 15.716 65.4653 15.764 65.6253 15.828C65.7933 15.892 65.8773 15.976 65.8773 16.08C65.8533 16.368 65.8333 16.704 65.8173 17.088C65.8013 17.464 65.7893 17.848 65.7813 18.24C65.7733 18.632 65.7653 19.02 65.7573 19.404C65.7573 19.78 65.7533 20.112 65.7453 20.4C65.7293 20.976 65.7253 21.548 65.7333 22.116C65.7413 22.684 65.7453 23.256 65.7453 23.832Z" fill="#9881FF"/>
<path d="M5.052 1.716C5.068 1.532 5.072 1.368 5.064 1.224C5.056 1.08 5.06 0.96 5.076 0.864C5.092 0.767999 5.132 0.695999 5.196 0.648C5.26 0.6 5.372 0.576 5.532 0.576C5.804 0.584 6.056 0.592 6.288 0.599999C6.528 0.607999 6.788 0.611999 7.068 0.611999C7.084 0.643999 7.096 0.671999 7.104 0.696C7.12 0.711999 7.128 0.727999 7.128 0.744C7.136 1.128 7.128 1.408 7.104 1.584C7.088 1.76 7.108 1.88 7.164 1.944C7.22 2 7.34 2.024 7.524 2.016C7.708 2.008 8.012 2.016 8.436 2.04C8.956 2.08 9.412 2.2 9.804 2.4C10.204 2.592 10.544 2.908 10.824 3.348C11.056 3.7 11.18 4.064 11.196 4.44C11.22 4.816 11.196 5.192 11.124 5.568C10.94 6.448 10.548 7.064 9.948 7.416C9.356 7.768 8.608 7.832 7.704 7.608C7.592 7.576 7.496 7.556 7.416 7.548C7.344 7.532 7.284 7.536 7.236 7.56C7.188 7.584 7.152 7.632 7.128 7.704C7.104 7.776 7.092 7.88 7.092 8.016C7.092 8.28 7.092 8.48 7.092 8.616C7.1 8.744 7.084 8.84 7.044 8.904C7.012 8.96 6.948 8.992 6.852 9C6.756 9 6.608 9 6.408 9C6.152 9 5.912 8.992 5.688 8.976C5.472 8.96 5.236 8.96 4.98 8.976C4.82 8.984 4.708 8.98 4.644 8.964C4.58 8.94 4.54 8.892 4.524 8.82C4.516 8.748 4.52 8.64 4.536 8.496C4.552 8.352 4.564 8.156 4.572 7.908C4.572 7.716 4.56 7.572 4.536 7.476C4.52 7.38 4.476 7.312 4.404 7.272C4.332 7.232 4.228 7.208 4.092 7.2C3.956 7.192 3.772 7.172 3.54 7.14C3.316 7.108 3.092 7.072 2.868 7.032C2.652 6.984 2.432 6.94 2.208 6.9C1.88 6.828 1.588 6.684 1.332 6.468C1.076 6.244 0.868 5.98 0.708 5.676C0.548 5.372 0.44 5.052 0.384 4.716C0.336 4.372 0.348 4.044 0.42 3.732C0.492 3.452 0.612 3.188 0.78 2.94C0.948 2.684 1.148 2.46 1.38 2.268C1.62 2.076 1.88 1.928 2.16 1.824C2.448 1.72 2.744 1.68 3.048 1.704C3.184 1.712 3.336 1.72 3.504 1.728C3.672 1.728 3.844 1.728 4.02 1.728C4.204 1.728 4.384 1.728 4.56 1.728C4.736 1.72 4.9 1.716 5.052 1.716ZM7.092 6.12C7.252 6.12 7.392 6.12 7.512 6.12C7.64 6.12 7.756 6.12 7.86 6.12C7.972 6.12 8.08 6.12 8.184 6.12C8.288 6.12 8.4 6.12 8.52 6.12C8.736 6.112 8.912 6.092 9.048 6.06C9.192 6.02 9.308 5.956 9.396 5.868C9.492 5.772 9.564 5.652 9.612 5.508C9.668 5.364 9.716 5.18 9.756 4.956C9.78 4.828 9.76 4.688 9.696 4.536C9.64 4.384 9.56 4.24 9.456 4.104C9.36 3.96 9.248 3.836 9.12 3.732C8.992 3.628 8.876 3.56 8.772 3.528C8.564 3.456 8.324 3.392 8.052 3.336C7.788 3.28 7.528 3.216 7.272 3.144C7.248 3.408 7.232 3.656 7.224 3.888C7.216 4.12 7.208 4.352 7.2 4.584C7.2 4.816 7.192 5.056 7.176 5.304C7.168 5.552 7.14 5.824 7.092 6.12ZM16.4267 0.648C16.7867 0.648 17.1427 0.648 17.4947 0.648C17.8547 0.648 18.2147 0.644 18.5747 0.636C18.7507 0.636 18.8787 0.644 18.9587 0.659999C19.0387 0.668 19.0947 0.696 19.1267 0.744C19.1667 0.792 19.1987 0.864 19.2227 0.96C19.2547 1.048 19.3027 1.168 19.3667 1.32C19.5747 1.824 19.7787 2.324 19.9787 2.82C20.1787 3.316 20.3747 3.816 20.5667 4.32C20.8147 4.936 21.0587 5.548 21.2987 6.156C21.5387 6.764 21.7667 7.38 21.9827 8.004C21.9987 8.06 22.0267 8.132 22.0667 8.22C22.1067 8.3 22.1427 8.384 22.1747 8.472C22.2067 8.56 22.2267 8.644 22.2347 8.724C22.2427 8.796 22.2267 8.848 22.1867 8.88C22.1227 8.936 22.0307 8.976 21.9107 9C21.7987 9.016 21.6787 9.028 21.5507 9.036C21.4227 9.044 21.2947 9.044 21.1667 9.036C21.0467 9.028 20.9467 9.02 20.8667 9.012C20.4667 8.996 20.0467 8.988 19.6067 8.988C19.1747 8.988 18.7587 8.988 18.3587 8.988C18.0867 8.988 17.8907 8.976 17.7707 8.952C17.6507 8.92 17.5627 8.868 17.5067 8.796C17.4587 8.724 17.4227 8.624 17.3987 8.496C17.3747 8.368 17.3227 8.2 17.2427 7.992C17.1547 7.688 17.0347 7.508 16.8827 7.452C16.7307 7.388 16.5227 7.388 16.2587 7.452C15.9547 7.516 15.6427 7.556 15.3227 7.572C15.0107 7.588 14.6987 7.6 14.3867 7.608C14.2667 7.608 14.1667 7.616 14.0867 7.632C14.0067 7.64 13.9427 7.684 13.8947 7.764C13.8547 7.844 13.8267 7.968 13.8107 8.136C13.7947 8.304 13.7867 8.544 13.7867 8.856C13.7787 8.88 13.7267 8.9 13.6307 8.916C13.5427 8.932 13.4267 8.944 13.2827 8.952C13.1387 8.96 12.9827 8.964 12.8147 8.964C12.6547 8.964 12.5067 8.96 12.3707 8.952C12.2347 8.936 12.1187 8.916 12.0227 8.892C11.9347 8.86 11.8907 8.824 11.8907 8.784C11.9707 8.4 12.0747 7.988 12.2027 7.548C12.3307 7.1 12.4667 6.652 12.6107 6.204C12.7547 5.756 12.9067 5.316 13.0667 4.884C13.2267 4.444 13.3827 4.04 13.5347 3.672C13.7027 3.272 13.8507 2.868 13.9787 2.46C14.1147 2.052 14.2467 1.64 14.3747 1.224C14.4147 1.08 14.4467 0.968 14.4707 0.887999C14.5027 0.799999 14.5387 0.74 14.5787 0.707999C14.6267 0.668 14.6867 0.648 14.7587 0.648C14.8307 0.64 14.9307 0.636 15.0587 0.636C15.2827 0.644 15.5107 0.648 15.7427 0.648C15.9747 0.648 16.2027 0.648 16.4267 0.648ZM16.5467 6.132C16.4907 5.844 16.4187 5.564 16.3307 5.292C16.2427 5.012 16.1427 4.764 16.0307 4.548C15.9267 4.332 15.8107 4.156 15.6827 4.02C15.5627 3.884 15.4347 3.808 15.2987 3.792C15.2507 3.952 15.1947 4.128 15.1307 4.32C15.0747 4.512 15.0107 4.712 14.9387 4.92C14.8747 5.12 14.8067 5.324 14.7347 5.532C14.6707 5.74 14.6107 5.94 14.5547 6.132C14.6907 6.14 14.8427 6.144 15.0107 6.144C15.1867 6.136 15.3667 6.132 15.5507 6.132C15.7347 6.132 15.9107 6.132 16.0787 6.132C16.2547 6.124 16.4107 6.124 16.5467 6.132ZM26.9501 9.012C26.7341 9.012 26.4621 9.012 26.1341 9.012C25.8141 9.012 25.4901 9.008 25.1621 9C24.8341 9 24.5221 9 24.2261 9C23.9381 8.992 23.7101 8.988 23.5421 8.988C23.3261 8.98 23.1661 8.972 23.0621 8.964C22.9581 8.948 22.8821 8.904 22.8341 8.832C22.7941 8.752 22.7741 8.628 22.7741 8.46C22.7741 8.284 22.7701 8.036 22.7621 7.716C22.7461 7.3 22.7381 6.884 22.7381 6.468C22.7461 6.052 22.7541 5.632 22.7621 5.208C22.7701 4.8 22.7741 4.392 22.7741 3.984C22.7741 3.576 22.7781 3.168 22.7861 2.76C22.7861 2.536 22.7741 2.312 22.7501 2.088C22.7341 1.864 22.7221 1.636 22.7141 1.404C22.7061 1.204 22.7021 1.048 22.7021 0.935999C22.7101 0.823999 22.7341 0.743999 22.7741 0.696C22.8141 0.648 22.8861 0.624 22.9901 0.624C23.0941 0.615999 23.2461 0.615999 23.4461 0.624C24.0541 0.664 24.6621 0.676 25.2701 0.659999C25.8781 0.644 26.4861 0.628 27.0941 0.611999C27.2701 0.611999 27.5221 0.611999 27.8501 0.611999C28.1781 0.611999 28.5061 0.619999 28.8341 0.636C29.1701 0.644 29.4661 0.66 29.7221 0.684C29.9861 0.707999 30.1381 0.743999 30.1781 0.792C30.2341 0.855999 30.2501 0.967999 30.2261 1.128C30.2021 1.288 30.1621 1.456 30.1061 1.632C30.0501 1.808 29.9821 1.964 29.9021 2.1C29.8301 2.236 29.7701 2.304 29.7221 2.304C29.3221 2.32 28.8981 2.328 28.4501 2.328C28.0101 2.32 27.5941 2.308 27.2021 2.292C27.0821 2.292 26.9341 2.288 26.7581 2.28C26.5901 2.272 26.4181 2.264 26.2421 2.256C26.0661 2.248 25.8901 2.244 25.7141 2.244C25.5461 2.236 25.4021 2.232 25.2821 2.232C25.1941 2.232 25.1301 2.268 25.0901 2.34C25.0501 2.404 25.0221 2.492 25.0061 2.604C24.9981 2.708 24.9941 2.832 24.9941 2.976C24.9941 3.112 24.9901 3.256 24.9821 3.408C24.9661 3.536 24.9821 3.66 25.0301 3.78C25.0861 3.892 25.2141 3.948 25.4141 3.948C25.6301 3.948 25.8661 3.948 26.1221 3.948C26.3781 3.948 26.6381 3.948 26.9021 3.948C27.1661 3.948 27.4261 3.948 27.6821 3.948C27.9381 3.948 28.1741 3.948 28.3901 3.948C28.7021 3.94 28.9901 3.984 29.2541 4.08C29.5181 4.168 29.7661 4.332 29.9981 4.572C30.3421 4.932 30.5101 5.32 30.5021 5.736C30.4941 6.152 30.3741 6.576 30.1421 7.008C29.9421 7.384 29.7221 7.696 29.4821 7.944C29.2501 8.184 29.0141 8.376 28.7741 8.52C28.5421 8.664 28.3141 8.772 28.0901 8.844C27.8741 8.908 27.6781 8.952 27.5021 8.976C27.3341 9 27.1981 9.008 27.0941 9C26.9981 9 26.9501 9.004 26.9501 9.012ZM36.2549 0.864C36.5829 0.991999 36.8589 1.156 37.0829 1.356C37.3149 1.548 37.5029 1.76 37.6469 1.992C37.7909 2.216 37.9029 2.448 37.9829 2.688C38.0629 2.928 38.1189 3.156 38.1509 3.372C38.1909 3.58 38.2109 3.768 38.2109 3.936C38.2189 4.104 38.2229 4.228 38.2229 4.308C38.2229 4.46 38.1709 4.652 38.0669 4.884C37.9709 5.108 37.8389 5.332 37.6709 5.556C37.5029 5.772 37.3029 5.964 37.0709 6.132C36.8469 6.3 36.6069 6.4 36.3509 6.432C35.9909 6.48 35.6229 6.54 35.2469 6.612C34.8789 6.676 34.4669 6.732 34.0109 6.78C33.8189 6.796 33.6669 6.804 33.5549 6.804C33.4429 6.796 33.3589 6.804 33.3029 6.828C33.2469 6.852 33.2109 6.904 33.1949 6.984C33.1869 7.064 33.1909 7.196 33.2069 7.38C33.2069 7.42 33.2069 7.524 33.2069 7.692C33.2149 7.852 33.2189 8.028 33.2189 8.22C33.2189 8.412 33.2149 8.588 33.2069 8.748C33.2069 8.908 33.1949 9.004 33.1709 9.036C32.8669 9.036 32.5669 9.036 32.2709 9.036C31.9829 9.036 31.7669 9.028 31.6229 9.012C31.5029 8.996 31.4269 8.952 31.3949 8.88C31.3629 8.8 31.3549 8.656 31.3709 8.448C31.3789 8.32 31.3829 8.088 31.3829 7.752C31.3909 7.416 31.3909 7.032 31.3829 6.6C31.3829 6.16 31.3749 5.7 31.3589 5.22C31.3509 4.732 31.3389 4.276 31.3229 3.852C31.3149 3.428 31.3069 3.064 31.2989 2.76C31.2909 2.456 31.2829 2.264 31.2749 2.184C31.2589 1.992 31.2509 1.8 31.2509 1.608C31.2589 1.408 31.2709 1.208 31.2869 1.008C31.2949 0.968 31.3269 0.92 31.3829 0.864C31.4469 0.807999 31.5069 0.775999 31.5629 0.767999C31.6669 0.752 31.8429 0.736 32.0909 0.719999C32.3469 0.696 32.6189 0.676 32.9069 0.659999C33.1949 0.644 33.4709 0.632 33.7349 0.624C34.0069 0.615999 34.2069 0.611999 34.3349 0.611999C34.6549 0.628 34.9789 0.648 35.3069 0.672C35.6429 0.688 35.9589 0.752 36.2549 0.864ZM41.0738 6.528C41.2098 6.256 41.3738 5.924 41.5658 5.532C41.7578 5.14 41.9578 4.736 42.1658 4.32C42.3738 3.896 42.5818 3.476 42.7898 3.06C43.0058 2.644 43.2018 2.272 43.3778 1.944C43.5538 1.608 43.6978 1.34 43.8098 1.14C43.9298 0.931999 44.0058 0.823999 44.0378 0.816C44.1818 0.791999 44.3858 0.771999 44.6498 0.756C44.9138 0.74 45.1778 0.728 45.4418 0.719999C45.7058 0.711999 45.9458 0.704 46.1618 0.696C46.3778 0.688 46.5178 0.684 46.5818 0.684C46.7738 0.676 46.9218 0.676 47.0258 0.684C47.1378 0.684 47.2178 0.704 47.2658 0.744C47.3218 0.776 47.3498 0.832 47.3498 0.912C47.3578 0.992 47.3578 1.108 47.3498 1.26C47.3418 1.372 47.3298 1.552 47.3138 1.8C47.2978 2.04 47.2778 2.328 47.2538 2.664C47.2298 2.992 47.2018 3.352 47.1698 3.744C47.1458 4.128 47.1178 4.52 47.0858 4.92C47.0618 5.32 47.0338 5.716 47.0018 6.108C46.9698 6.492 46.9378 6.844 46.9058 7.164C46.8818 7.484 46.8578 7.76 46.8338 7.992C46.8098 8.224 46.7898 8.384 46.7738 8.472C46.7658 8.52 46.7418 8.572 46.7018 8.628C46.6698 8.676 46.6298 8.724 46.5818 8.772C46.5338 8.812 46.4818 8.848 46.4258 8.88C46.3778 8.912 46.3298 8.928 46.2818 8.928C45.8018 8.952 45.2898 8.956 44.7458 8.94C44.2018 8.924 43.6778 8.916 43.1738 8.916V6.192C43.1578 6.184 43.1418 6.18 43.1258 6.18C43.1098 6.172 43.0938 6.164 43.0778 6.156L42.6818 6.984C42.5698 7.192 42.4498 7.432 42.3218 7.704C42.2018 7.976 42.0858 8.216 41.9738 8.424C41.9098 8.528 41.8538 8.608 41.8058 8.664C41.7658 8.712 41.7138 8.748 41.6498 8.772C41.5858 8.796 41.4938 8.808 41.3738 8.808C41.2618 8.8 41.1058 8.788 40.9058 8.772C40.6578 8.756 40.4418 8.74 40.2578 8.724C40.0818 8.7 39.8938 8.676 39.6938 8.652C39.5418 8.644 39.4498 8.628 39.4178 8.604C39.3938 8.572 39.3778 8.488 39.3698 8.352C39.3058 7.808 39.2578 7.268 39.2258 6.732C39.2018 6.188 39.1698 5.644 39.1298 5.1C39.0898 4.508 39.0538 3.892 39.0218 3.252C38.9978 2.604 38.9778 1.984 38.9618 1.392C38.9538 1.264 38.9418 1.16 38.9258 1.08C38.9098 0.992 38.9178 0.924 38.9498 0.875999C38.9818 0.82 39.0538 0.776 39.1658 0.744C39.2778 0.712 39.4578 0.68 39.7058 0.648C39.8178 0.632 39.9378 0.612 40.0658 0.588C40.2018 0.563999 40.3298 0.547999 40.4498 0.539999C40.5698 0.532 40.6698 0.536 40.7498 0.551999C40.8378 0.568 40.8898 0.6 40.9058 0.648C40.9218 0.695999 40.9298 0.771999 40.9298 0.875999C40.9378 0.98 40.9378 1.096 40.9298 1.224C40.9298 1.344 40.9258 1.468 40.9178 1.596C40.9178 1.716 40.9178 1.812 40.9178 1.884C40.9178 2.62 40.9058 3.384 40.8818 4.176C40.8658 4.96 40.8578 5.724 40.8578 6.468C40.8978 6.484 40.9338 6.496 40.9658 6.504C40.9978 6.504 41.0338 6.512 41.0738 6.528ZM52.3036 3.348C52.3676 3.332 52.4276 3.32 52.4836 3.312C52.5396 3.304 52.5796 3.284 52.6036 3.252C52.8516 2.996 53.0636 2.772 53.2396 2.58C53.4156 2.388 53.5836 2.204 53.7436 2.028C53.9116 1.852 54.0876 1.676 54.2716 1.5C54.4556 1.324 54.6796 1.124 54.9436 0.9C55.0076 0.828 55.1196 0.776 55.2796 0.744C55.4476 0.712 55.6276 0.692 55.8196 0.684C56.0196 0.668 56.2236 0.664 56.4316 0.672C56.6396 0.672 56.8236 0.668 56.9836 0.659999C57.0476 0.651999 57.0876 0.651999 57.1036 0.659999C57.1276 0.659999 57.1436 0.668 57.1516 0.684C57.1676 0.7 57.1596 0.727999 57.1276 0.767999C57.0636 0.856 56.9596 0.988 56.8156 1.164C56.6716 1.332 56.5076 1.524 56.3236 1.74C56.1476 1.956 55.9556 2.18 55.7476 2.412C55.5396 2.644 55.3436 2.864 55.1596 3.072C54.9836 3.28 54.8236 3.464 54.6796 3.624C54.5356 3.776 54.4316 3.88 54.3676 3.936C54.2636 4.032 54.1876 4.112 54.1396 4.176C54.0996 4.24 54.0796 4.304 54.0796 4.368C54.0796 4.424 54.0996 4.484 54.1396 4.548C54.1876 4.612 54.2556 4.696 54.3436 4.8C54.5756 5.096 54.8396 5.424 55.1356 5.784C55.4316 6.144 55.7236 6.5 56.0116 6.852C56.2996 7.204 56.5716 7.532 56.8276 7.836C57.0916 8.14 57.3036 8.384 57.4636 8.568C57.5676 8.68 57.6236 8.76 57.6316 8.808C57.6396 8.856 57.6316 8.896 57.6076 8.928C57.5836 8.952 57.5036 8.968 57.3676 8.976C57.2316 8.976 57.0636 8.972 56.8636 8.964C56.6636 8.948 56.4436 8.936 56.2036 8.928C55.9716 8.92 55.7436 8.916 55.5196 8.916C55.4076 8.916 55.2636 8.848 55.0876 8.712C54.9196 8.568 54.7356 8.388 54.5356 8.172C54.3356 7.956 54.1276 7.712 53.9116 7.44C53.6956 7.168 53.4916 6.904 53.2996 6.648C53.1156 6.392 52.9476 6.156 52.7956 5.94C52.6436 5.724 52.5316 5.56 52.4596 5.448C52.4436 5.544 52.4196 5.64 52.3876 5.736C52.3636 5.832 52.3596 5.924 52.3756 6.012C52.3836 6.22 52.3876 6.488 52.3876 6.816C52.3876 7.144 52.3876 7.464 52.3876 7.776C52.3876 8.144 52.3836 8.528 52.3756 8.928C52.3676 8.952 52.2956 8.968 52.1596 8.976C52.0236 8.984 51.8516 8.992 51.6436 9C51.4356 9 51.2116 9 50.9716 9C50.7316 9 50.5036 9 50.2876 9C50.0716 8.992 49.8556 8.992 49.6396 9C49.4236 9.008 49.2076 9.004 48.9916 8.988C48.7356 8.98 48.5476 8.96 48.4276 8.928C48.3076 8.896 48.2276 8.84 48.1876 8.76C48.1556 8.68 48.1476 8.572 48.1636 8.436C48.1796 8.3 48.1996 8.128 48.2236 7.92C48.2636 7.472 48.2996 7.028 48.3316 6.588C48.3636 6.148 48.3876 5.7 48.4036 5.244C48.4276 4.748 48.4436 4.252 48.4516 3.756C48.4596 3.26 48.4796 2.764 48.5116 2.268C48.5276 2.044 48.5316 1.792 48.5236 1.512C48.5236 1.232 48.5476 0.987999 48.5956 0.779999C48.6116 0.724 48.6956 0.684 48.8476 0.659999C49.0076 0.627999 49.1996 0.611999 49.4236 0.611999C49.6556 0.603999 49.9036 0.603999 50.1676 0.611999C50.4396 0.62 50.6956 0.632 50.9356 0.648C51.1756 0.655999 51.3796 0.668 51.5476 0.684C51.7156 0.692 51.8196 0.696 51.8596 0.696C51.9796 0.704 52.0636 0.72 52.1116 0.744C52.1676 0.767999 52.2076 0.807999 52.2316 0.864C52.2556 0.92 52.2676 0.996 52.2676 1.092C52.2676 1.18 52.2716 1.292 52.2796 1.428C52.2956 1.74 52.3036 2.052 52.3036 2.364C52.3036 2.676 52.3036 3.004 52.3036 3.348ZM62.5751 0.648C62.9351 0.648 63.2911 0.648 63.6431 0.648C64.0031 0.648 64.3631 0.644 64.7231 0.636C64.8991 0.636 65.0271 0.644 65.1071 0.659999C65.1871 0.668 65.2431 0.696 65.2751 0.744C65.3151 0.792 65.3471 0.864 65.3711 0.96C65.4031 1.048 65.4511 1.168 65.5151 1.32C65.7231 1.824 65.9271 2.324 66.1271 2.82C66.3271 3.316 66.5231 3.816 66.7151 4.32C66.9631 4.936 67.2071 5.548 67.4471 6.156C67.6871 6.764 67.9151 7.38 68.1311 8.004C68.1471 8.06 68.1751 8.132 68.2151 8.22C68.2551 8.3 68.2911 8.384 68.3231 8.472C68.3551 8.56 68.3751 8.644 68.3831 8.724C68.3911 8.796 68.3751 8.848 68.3351 8.88C68.2711 8.936 68.1791 8.976 68.0591 9C67.9471 9.016 67.8271 9.028 67.6991 9.036C67.5711 9.044 67.4431 9.044 67.3151 9.036C67.1951 9.028 67.0951 9.02 67.0151 9.012C66.6151 8.996 66.1951 8.988 65.7551 8.988C65.3231 8.988 64.9071 8.988 64.5071 8.988C64.2351 8.988 64.0391 8.976 63.9191 8.952C63.7991 8.92 63.7111 8.868 63.6551 8.796C63.6071 8.724 63.5711 8.624 63.5471 8.496C63.5231 8.368 63.4711 8.2 63.3911 7.992C63.3031 7.688 63.1831 7.508 63.0311 7.452C62.8791 7.388 62.6711 7.388 62.4071 7.452C62.1031 7.516 61.7911 7.556 61.4711 7.572C61.1591 7.588 60.8471 7.6 60.5351 7.608C60.4151 7.608 60.3151 7.616 60.2351 7.632C60.1551 7.64 60.0911 7.684 60.0431 7.764C60.0031 7.844 59.9751 7.968 59.9591 8.136C59.9431 8.304 59.9351 8.544 59.9351 8.856C59.9271 8.88 59.8751 8.9 59.7791 8.916C59.6911 8.932 59.5751 8.944 59.4311 8.952C59.2871 8.96 59.1311 8.964 58.9631 8.964C58.8031 8.964 58.6551 8.96 58.5191 8.952C58.3831 8.936 58.2671 8.916 58.1711 8.892C58.0831 8.86 58.0391 8.824 58.0391 8.784C58.1191 8.4 58.2231 7.988 58.3511 7.548C58.4791 7.1 58.6151 6.652 58.7591 6.204C58.9031 5.756 59.0551 5.316 59.2151 4.884C59.3751 4.444 59.5311 4.04 59.6831 3.672C59.8511 3.272 59.9991 2.868 60.1271 2.46C60.2631 2.052 60.3951 1.64 60.5231 1.224C60.5631 1.08 60.5951 0.968 60.6191 0.887999C60.6511 0.799999 60.6871 0.74 60.7271 0.707999C60.7751 0.668 60.8351 0.648 60.9071 0.648C60.9791 0.64 61.0791 0.636 61.2071 0.636C61.4311 0.644 61.6591 0.648 61.8911 0.648C62.1231 0.648 62.3511 0.648 62.5751 0.648ZM62.6951 6.132C62.6391 5.844 62.5671 5.564 62.4791 5.292C62.3911 5.012 62.2911 4.764 62.1791 4.548C62.0751 4.332 61.9591 4.156 61.8311 4.02C61.7111 3.884 61.5831 3.808 61.4471 3.792C61.3991 3.952 61.3431 4.128 61.2791 4.32C61.2231 4.512 61.1591 4.712 61.0871 4.92C61.0231 5.12 60.9551 5.324 60.8831 5.532C60.8191 5.74 60.7591 5.94 60.7031 6.132C60.8391 6.14 60.9911 6.144 61.1591 6.144C61.3351 6.136 61.5151 6.132 61.6991 6.132C61.8831 6.132 62.0591 6.132 62.2271 6.132C62.4031 6.124 62.5591 6.124 62.6951 6.132Z" fill="#9881FF"/>
</svg>
