<svg width="84" height="85" viewBox="0 0 84 85" fill="none" xmlns="http://www.w3.org/2000/svg">
<path d="M3.24787 1C2.00767 1 1 1.94917 1 3.11739H2.88615C2.88615 2.9308 3.04978 2.78477 3.23926 2.78477V1H3.24787ZM1 81.8826C1 83.0508 2.00767 84 3.24787 84V82.2233C3.04978 82.2233 2.89476 82.0692 2.89476 81.8907H1V81.8826ZM76.0928 2.77666H82.4062L82.3885 1H76.0928V2.77666ZM66.6103 2.77666H76.0928V1H66.6103V2.77666ZM45.0532 63.6861H83V61.9094H45.0532V63.6861ZM44.1058 62.7937V83.0995H45.9919V62.7937H44.1058ZM44.1058 42.4878V62.7937H45.9919V42.4878H44.1058ZM22.5486 42.4878V83.0995H24.4347V42.4878H22.5486ZM23.496 82.2071H3.24787V83.9838H23.5046V82.2071H23.496ZM45.0532 82.2071H23.496V83.9838H45.0532V82.2071ZM23.496 41.5954H1.94738V43.3721H23.5046V41.5954H23.496ZM45.0532 41.5954H23.496V43.3721H45.0532V41.5954ZM45.0532 21.2896H1.94738V23.0663H45.0618V21.2896H45.0532ZM2.88615 22.182V3.11739H1V22.1982H2.88615V22.182ZM2.88615 42.4878V22.182H1V42.4878H2.88615ZM44.1058 22.182V42.4878H45.9919V22.182H44.1058ZM44.1058 1.87616V22.182H45.9919V1.89239H44.1058V1.87616ZM67.5491 42.4878V1.89239H65.663V42.5041H67.5491V42.4878ZM45.0532 2.77666H66.6103V1H45.0532V2.77666ZM66.6103 43.3883H83V41.6117H66.6103V43.3883ZM45.0532 43.3883H66.6103V41.6117H45.0532V43.3883ZM2.88615 81.8826V42.5041H1V81.8826H2.88615ZM82.9914 82.2152H45.0445V83.9919H82.9914V82.2152ZM3.24787 2.77666H45.0532V1H3.24787V2.77666Z" fill="white"/>
<path d="M3.24787 1C2.00767 1 1 1.94917 1 3.11739M3.24787 1H3.23926V2.78477C3.04978 2.78477 2.88615 2.9308 2.88615 3.11739M3.24787 1H45.0531M3.24787 1V2.77666H45.0531M1 3.11739H2.88615M1 3.11739V22.1982H2.88615V22.182M2.88615 3.11739V22.182M1 81.8826C1 83.0508 2.00767 84 3.24787 84V82.2233C3.04978 82.2233 2.89476 82.0692 2.89476 81.8907H1V81.8826ZM1 81.8826V42.5041H2.88615V81.8826H1ZM76.0927 2.77666H82.4063L82.3885 1H76.0927M76.0927 2.77666V1M76.0927 2.77666H66.6103M76.0927 1H66.6103M66.6103 2.77666V1M66.6103 2.77666H45.0531M66.6103 1H45.0531M44.1058 62.7937V83.0995H45.9919V62.7937M44.1058 62.7937H45.9919M44.1058 62.7937V42.4878M45.9919 62.7937V42.4878M44.1058 42.4878H45.9919M44.1058 42.4878V22.182M45.9919 42.4878V22.182M23.496 82.2071H3.24787V83.9838H23.5046V82.2071H23.496ZM23.496 82.2071H45.0531V83.9838H23.496V82.2071ZM23.496 41.5954H1.94738V43.3721H23.5046V41.5954H23.496ZM23.496 41.5954H45.0531V43.3721H23.496V41.5954ZM2.88615 22.182V42.4878H1V22.182H2.88615ZM44.1058 22.182H45.9919M44.1058 22.182V1.87616V1.89239H45.9919V22.182M45.0531 2.77666V1M66.6103 43.3883H83V41.6117H66.6103M66.6103 43.3883V41.6117M66.6103 43.3883H45.0531V41.6117H66.6103M45.0531 63.6861H83V61.9094H45.0531V63.6861ZM22.5486 42.4878V83.0995H24.4347V42.4878H22.5486ZM45.0531 21.2896H1.94738V23.0663H45.0618V21.2896H45.0531ZM67.5491 42.4878V1.89239H65.663V42.5041H67.5491V42.4878ZM82.9914 82.2152H45.0445V83.9919H82.9914V82.2152Z" stroke="white" stroke-miterlimit="10"/>
</svg>
