<svg width="73" height="156" viewBox="0 0 73 156" fill="none" xmlns="http://www.w3.org/2000/svg">
<path d="M2.09466 1C1.48369 1 1 1.54791 1 2.21862H2.95171C2.95171 2.74764 2.56986 3.17274 2.09466 3.17274V1ZM58.8981 54.3171H71.983V52.1444H58.8981V54.3171ZM27.3397 42.6977H71.9745V40.525H27.3482V42.6977H27.3397ZM40.3398 124.572H71.9745V122.399H40.3398V124.572ZM15.9858 29.7557H72V27.583H15.9858V29.7557ZM12.7018 124.572H40.3483V122.399H12.7018V124.572ZM39.3724 123.486V144.004H41.3241V123.486H39.3724ZM39.3724 73.1822V123.486H41.3241V73.1822H39.3724ZM11.7259 123.486V155H13.6777V123.486H11.7259ZM11.7259 31.305V123.486H13.6777V31.3144H11.7259V31.305ZM41.0186 73.9568L59.5769 54.0054L58.2192 52.4467L39.6609 72.3981L41.0186 73.9568ZM40.3398 54.3077H58.8981V52.135H40.3398V54.3077ZM39.3639 53.2213V73.1727H41.3156V53.2213H39.3639ZM26.7287 42.4521L39.7288 54.0715L40.9508 52.3806L27.9506 40.7611L26.7287 42.4521ZM13.7286 30.8327L26.7287 42.4521L27.9506 40.7611L14.9505 29.1417L13.7286 30.8327ZM14.9081 30.8704L16.5458 29.5479L15.4003 27.7908L13.7625 29.1134L14.9081 30.8704ZM13.2703 32.193L14.9081 30.8704L13.7625 29.1134L12.1248 30.4359L13.2703 32.193ZM16.5543 29.5479L31.9559 17.1538L30.8103 15.3968L15.4087 27.7908L16.5543 29.5479ZM31.3789 15.1889H12.7018V17.3617H31.3789V15.1889ZM71.9915 15.1889H31.3789V17.3617H71.9915V15.1889ZM11.7259 16.2753V31.3144H13.6777V16.2753H11.7259ZM12.7018 15.1889H1.97586V17.3617H12.7018V15.1889ZM2.95171 16.2753V2.21862H1V16.2753H2.95171ZM2.95171 155V16.2753H1V155H2.95171ZM2.09466 3.17274H71.9915V1H2.09466V3.17274Z" fill="white"/>
<path d="M2.09466 1C1.48369 1 1 1.54791 1 2.21862M2.09466 1V3.17274M2.09466 1H71.9915V3.17274H2.09466M1 2.21862H2.95172M1 2.21862V16.2753M2.95172 2.21862C2.95172 2.74764 2.56986 3.17274 2.09466 3.17274M2.95172 2.21862V16.2753M39.3724 123.486V144.004H41.3241V123.486M39.3724 123.486H41.3241M39.3724 123.486V73.1822H41.3241V123.486M11.7259 123.486V155H13.6777V123.486M11.7259 123.486H13.6777M11.7259 123.486V31.305V31.3144M13.6777 123.486V31.3144M13.6777 31.3144H11.7259M13.6777 31.3144V16.2753H11.7259V31.3144M26.7287 42.4521L39.7288 54.0715L40.9508 52.3806L27.9506 40.7611M26.7287 42.4521L27.9506 40.7611M26.7287 42.4521L13.7286 30.8327L14.9505 29.1417L27.9506 40.7611M14.9081 30.8704L16.5458 29.5479L15.4003 27.7908L13.7625 29.1134M14.9081 30.8704L13.7625 29.1134M14.9081 30.8704L13.2703 32.193L12.1248 30.4359L13.7625 29.1134M31.3789 15.1889H12.7018M31.3789 15.1889V17.3617M31.3789 15.1889H71.9915V17.3617H31.3789M12.7018 15.1889V17.3617M12.7018 15.1889H1.97586V17.3617H12.7018M12.7018 17.3617H31.3789M2.95172 16.2753H1M2.95172 16.2753V155H1V16.2753M15.9858 28.6694L15.4172 27.7908M58.8981 54.3171H71.983V52.1444H58.8981V54.3171ZM27.3397 42.6977H71.9745V40.525H27.3482V42.6977H27.3397ZM40.3398 124.572H71.9745V122.399H40.3398V124.572ZM15.9858 29.7557H72V27.583H15.9858V29.7557ZM12.7018 124.572H40.3483V122.399H12.7018V124.572ZM41.0186 73.9568L59.5769 54.0054L58.2192 52.4467L39.6609 72.3981L41.0186 73.9568ZM40.3398 54.3077H58.8981V52.135H40.3398V54.3077ZM39.3639 53.2213V73.1727H41.3156V53.2213H39.3639ZM16.5543 29.5479L31.9559 17.1538L30.8103 15.3968L15.4087 27.7908L16.5543 29.5479Z" stroke="white" stroke-miterlimit="10"/>
</svg>
