<svg width="20" height="21" viewBox="0 0 20 21" fill="none" xmlns="http://www.w3.org/2000/svg">
<path d="M4.29086 9.55178L2.96778 12.6943C1.29729 16.6594 0.462937 18.642 1.37469 19.6043C2.28644 20.5667 4.16305 19.6851 7.91987 17.9229L10.899 16.5245C13.1645 15.4615 14.2976 14.9305 14.4777 13.9055C14.6577 12.8805 13.781 11.9552 12.0277 10.1056L10.3734 8.35862C8.62101 6.50808 7.74436 5.58281 6.7732 5.77376C5.80205 5.96375 5.29892 7.15976 4.29176 9.55083M5.0487 9.0749L11.3491 15.7247M3.2486 13.8247L6.84881 17.6246M13.5992 6.69998L16.2994 3.85007M11.9764 1.00017C12.3364 1.6338 12.6235 3.28009 10.899 4.80004M18.9995 8.41277C18.3992 8.03278 16.8394 7.72974 15.3993 9.54988M15.3993 1.00017V1.01917M18.9995 4.80004V4.81904M18.0995 11.4498V11.4688M9.09894 1.95014V1.96914" stroke="#E05C92" stroke-width="2" stroke-linecap="round" stroke-linejoin="round"/>
</svg>
