<svg width="14" height="13" viewBox="0 0 14 13" fill="none" xmlns="http://www.w3.org/2000/svg">
<path d="M9.41764 8.17949L9.07639 8.51924C9.07639 8.51924 8.26414 9.32624 6.04789 7.12274C3.83164 4.91924 4.64389 4.11224 4.64389 4.11224L4.85839 3.89774C5.38864 3.37124 5.43889 2.52524 4.97614 1.90724L4.03114 0.644985C3.45814 -0.120015 2.35189 -0.221265 1.69564 0.431235L0.518142 1.60123C0.193392 1.92524 -0.024108 2.34373 0.002142 2.80873C0.069642 3.99898 0.608142 6.55874 3.61114 9.54524C6.79639 12.7117 9.78514 12.8377 11.0069 12.7237C11.3939 12.6877 11.7299 12.4912 12.0006 12.2212L13.0656 11.1622C13.7856 10.4475 13.5831 9.22124 12.6621 8.72099L11.2296 7.94174C10.6251 7.61399 9.89014 7.70999 9.41764 8.17949Z" fill="white"/>
</svg>
