<svg width="336" height="376" viewBox="0 0 336 376" fill="none" xmlns="http://www.w3.org/2000/svg">
<path d="M32 1H246.024C263.002 1 276.765 14.7629 276.765 31.7402V42.2109C276.765 45.3767 277.496 48.5002 278.901 51.3369C282.17 57.9338 288.716 62.2799 296.064 62.7305L297.821 62.8379L297.852 62.8398H304C321.121 62.8398 335 76.719 335 93.8398V344C335 361.121 321.121 375 304 375H102.235C85.1145 375 71.2354 361.121 71.2354 344V200.564C71.2353 182.339 56.4607 167.564 38.2354 167.564H32C14.8792 167.564 1 153.685 1 136.564V32L1.00977 31.2002C1.434 14.449 15.1466 1 32 1Z" stroke="#C90953" stroke-width="2"/>
</svg>
