<svg width="92" height="93" viewBox="0 0 92 93" fill="none" xmlns="http://www.w3.org/2000/svg">
<path d="M8.18822 43.3H90.0113V41H8.18822V43.3ZM3.27041 49.13C3.27041 45.89 5.48858 43.3 8.18822 43.3V41C4.3709 41 1.29297 44.66 1.29297 49.13H3.27041ZM3.27041 84.89V49.13H1.29297V84.89H3.27041ZM4.51706 88.39C3.71748 87.46 3.27041 86.2 3.27041 84.89H1.29297C1.29297 86.81 1.94638 88.66 3.12425 90.02L4.52566 88.39H4.51706ZM7.52621 89.84C6.39993 89.84 5.30803 89.32 4.51706 88.39L3.11565 90.02C4.28492 91.38 5.87547 92.15 7.52621 92.15V89.85V89.84ZM90.0113 89.84H7.53481V92.14H90.0199V89.84H90.0113ZM90.0113 92.15C90.5615 92.15 91 91.64 91 91C91 90.36 90.5615 89.85 90.0113 89.85V92.15ZM90.0113 43.3C90.5615 43.3 91 42.79 91 42.15C91 41.51 90.5615 41 90.0113 41V43.3Z" fill="white"/>
<path d="M8.18822 43.3H90.0113M8.18822 43.3V41M8.18822 43.3C5.48858 43.3 3.27041 45.89 3.27041 49.13M90.0113 43.3V41M90.0113 43.3C90.5615 43.3 91 42.79 91 42.15C91 41.51 90.5615 41 90.0113 41M90.0113 41H8.18822M8.18822 41C4.3709 41 1.29297 44.66 1.29297 49.13M3.27041 49.13H1.29297M3.27041 49.13V84.89M1.29297 49.13V84.89M3.27041 84.89H1.29297M3.27041 84.89C3.27041 86.2 3.71748 87.46 4.51706 88.39M1.29297 84.89C1.29297 86.81 1.94638 88.66 3.12425 90.02L4.52566 88.39H4.51706M1.29297 84.89H2.28169M4.51706 88.39C5.30803 89.32 6.39993 89.84 7.52621 89.84V89.85V92.15C5.87547 92.15 4.28492 91.38 3.11565 90.02L4.51706 88.39ZM90.0113 89.84H7.53481V92.14H90.0199V89.84H90.0113ZM90.0113 92.15C90.5615 92.15 91 91.64 91 91C91 90.36 90.5615 89.85 90.0113 89.85V92.15Z" stroke="white" stroke-miterlimit="10"/>
<path d="M32.7949 42.15V54.36H34.7724V42.15H32.7949ZM32.7949 54.36C32.7949 55 33.2334 55.51 33.7836 55.51C34.3339 55.51 34.7724 55 34.7724 54.36H32.7949ZM34.7724 42.15C34.7724 41.51 34.3339 41 33.7836 41C33.2334 41 32.7949 41.51 32.7949 42.15H34.7724Z" fill="white"/>
<path d="M32.7949 42.15V54.36M32.7949 42.15H34.7724M32.7949 42.15C32.7949 41.51 33.2334 41 33.7836 41C34.3339 41 34.7724 41.51 34.7724 42.15M32.7949 54.36H34.7724M32.7949 54.36C32.7949 55 33.2334 55.51 33.7836 55.51C34.3339 55.51 34.7724 55 34.7724 54.36M34.7724 54.36V42.15" stroke="white" stroke-miterlimit="10"/>
<path d="M17.043 42.15V60.47H19.0204V42.15H17.043ZM17.043 60.47C17.043 61.11 17.4814 61.62 18.0317 61.62C18.5819 61.62 19.0204 61.11 19.0204 60.47H17.043ZM19.0204 42.15C19.0204 41.51 18.5819 41 18.0317 41C17.4814 41 17.043 41.51 17.043 42.15H19.0204Z" fill="white"/>
<path d="M17.043 42.15V60.47M17.043 42.15H19.0204M17.043 42.15C17.043 41.51 17.4814 41 18.0317 41C18.5819 41 19.0204 41.51 19.0204 42.15M17.043 60.47H19.0204M17.043 60.47C17.043 61.11 17.4814 61.62 18.0317 61.62C18.5819 61.62 19.0204 61.11 19.0204 60.47M19.0204 60.47V42.15" stroke="white" stroke-miterlimit="10"/>
<path d="M48.5449 42.15V60.47H50.5224V42.15H48.5449ZM48.5449 60.47C48.5449 61.11 48.9834 61.62 49.5336 61.62C50.0839 61.62 50.5224 61.11 50.5224 60.47H48.5449ZM50.5224 42.15C50.5224 41.51 50.0839 41 49.5336 41C48.9834 41 48.5449 41.51 48.5449 42.15H50.5224Z" fill="white"/>
<path d="M48.5449 42.15V60.47M48.5449 42.15H50.5224M48.5449 42.15C48.5449 41.51 48.9834 41 49.5336 41C50.0839 41 50.5224 41.51 50.5224 42.15M48.5449 60.47H50.5224M48.5449 60.47C48.5449 61.11 48.9834 61.62 49.5336 61.62C50.0839 61.62 50.5224 61.11 50.5224 60.47M50.5224 60.47V42.15" stroke="white" stroke-miterlimit="10"/>
<path d="M80.0371 42.15V60.47H82.0146V42.15H80.0371ZM80.0371 60.47C80.0371 61.11 80.4756 61.62 81.0258 61.62C81.5761 61.62 82.0146 61.11 82.0146 60.47H80.0371ZM82.0146 42.15C82.0146 41.51 81.5761 41 81.0258 41C80.4756 41 80.0371 41.51 80.0371 42.15H82.0146Z" fill="white"/>
<path d="M80.0371 42.15V60.47M80.0371 42.15H82.0146M80.0371 42.15C80.0371 41.51 80.4756 41 81.0258 41C81.5761 41 82.0146 41.51 82.0146 42.15M80.0371 60.47H82.0146M80.0371 60.47C80.0371 61.11 80.4756 61.62 81.0258 61.62C81.5761 61.62 82.0146 61.11 82.0146 60.47M82.0146 60.47V42.15" stroke="white" stroke-miterlimit="10"/>
<path d="M64.2871 42.15V54.36H66.2646V42.15H64.2871ZM64.2871 54.36C64.2871 55 64.7256 55.51 65.2758 55.51C65.8261 55.51 66.2646 55 66.2646 54.36H64.2871ZM66.2646 42.15C66.2646 41.51 65.8261 41 65.2758 41C64.7256 41 64.2871 41.51 64.2871 42.15H66.2646Z" fill="white"/>
<path d="M64.2871 42.15V54.36M64.2871 42.15H66.2646M64.2871 42.15C64.2871 41.51 64.7256 41 65.2758 41C65.8261 41 66.2646 41.51 66.2646 42.15M64.2871 54.36H66.2646M64.2871 54.36C64.2871 55 64.7256 55.51 65.2758 55.51C65.8261 55.51 66.2646 55 66.2646 54.36M66.2646 54.36V42.15" stroke="white" stroke-miterlimit="10"/>
<path d="M1.29297 2.15V26.57H3.27041V2.15H1.29297ZM1.29297 26.57C1.29297 27.21 1.73144 27.72 2.28169 27.72C2.83193 27.72 3.27041 27.21 3.27041 26.57H1.29297ZM3.27041 2.15C3.27041 1.51 2.83193 1 2.28169 1C1.73144 1 1.29297 1.51 1.29297 2.15H3.27041Z" fill="white"/>
<path d="M1.29297 2.15V26.57M1.29297 2.15H3.27041M1.29297 2.15C1.29297 1.51 1.73144 1 2.28169 1C2.83193 1 3.27041 1.51 3.27041 2.15M1.29297 26.57H3.27041M1.29297 26.57C1.29297 27.21 1.73144 27.72 2.28169 27.72C2.83193 27.72 3.27041 27.21 3.27041 26.57M3.27041 26.57V2.15" stroke="white" stroke-miterlimit="10"/>
<path d="M2.28169 15.51H89.4697V13.21H2.28169V15.51ZM89.4697 15.51C90.0199 15.51 90.4584 15 90.4584 14.36C90.4584 13.72 90.0199 13.21 89.4697 13.21V15.51ZM2.28169 13.21C1.73144 13.21 1.29297 13.72 1.29297 14.36C1.29297 15 1.73144 15.51 2.28169 15.51V13.21Z" fill="white"/>
<path d="M2.28169 15.51H89.4697M2.28169 15.51V13.21M2.28169 15.51C1.73144 15.51 1.29297 15 1.29297 14.36C1.29297 13.72 1.73144 13.21 2.28169 13.21M89.4697 15.51V13.21M89.4697 15.51C90.0199 15.51 90.4584 15 90.4584 14.36C90.4584 13.72 90.0199 13.21 89.4697 13.21M89.4697 13.21H2.28169" stroke="white" stroke-miterlimit="10"/>
</svg>
