<svg width="72" height="140" viewBox="0 0 72 140" fill="none" xmlns="http://www.w3.org/2000/svg">
<path d="M64.0689 131.749C64.153 131.749 64.2294 131.78 64.2829 131.842L65.5132 130.568C65.1235 130.179 64.6115 129.969 64.0689 129.969V131.757V131.749ZM8.19983 130.855V139H9.95744V130.855H8.19983ZM64.2905 131.842L64.7108 132.262L65.9411 130.988L65.5208 130.568L64.2905 131.842ZM51.1314 131.749H64.0765V129.962H51.1314V131.749ZM51.1314 129.962H18.2029V131.749H51.1237V129.962H51.1314ZM50.2526 114.605V130.855H52.0102V114.605H50.2526ZM51.1161 113.711L18.1953 114.349L18.2258 116.136L51.1466 115.499L51.1161 113.711ZM54.4326 113.649L51.1161 113.711L51.1466 115.499L54.4632 115.437L54.4326 113.649ZM19.0894 115.242V99.6292H17.3318V115.242H19.0894ZM19.0894 130.855V115.242H17.3318V130.855H19.0894ZM54.4479 100.523C55.9686 100.523 56.9926 101.253 57.6574 102.411C58.3452 103.608 58.6509 105.287 58.5515 107.035C58.4522 108.784 57.9708 110.494 57.2066 111.737C56.4424 112.989 55.4872 113.649 54.4479 113.649V115.437C56.3201 115.437 57.7491 114.232 58.6967 112.685C59.6443 111.139 60.1945 109.118 60.3091 107.137C60.4161 105.163 60.0952 103.103 59.1782 101.51C58.2382 99.8701 56.664 98.7354 54.4479 98.7354V100.523ZM18.2106 100.523H54.4479V98.7354H18.2029V100.523H18.2106ZM19.0894 99.6292V61.3697H17.3318V99.6292H19.0894ZM38.0639 40.1921L17.5916 60.7324L18.8295 62.0069L39.3019 41.4666L38.0639 40.1921ZM19.0894 61.3619V40.8216H17.3318V61.3619H19.0894ZM38.6829 41.7153H70.9007V39.9279H38.6829V41.7153ZM18.2106 41.7153H38.6829V39.9279H18.2106V41.7153ZM18.2106 39.9279H9.07863V41.7153H18.2106V39.9279ZM9.07863 131.741H18.2106V129.954H9.07863V131.741ZM8.19983 40.8216V130.848H9.95744V40.8294H8.19983V40.8216ZM4.32544 28.1772C3.05691 28.6901 2.13989 29.8559 1.59733 31.1771C1.05476 32.5138 0.856073 34.1069 1.10825 35.6535C1.36043 37.2078 2.0864 38.7388 3.41607 39.8812C4.75338 41.0237 6.62562 41.7153 9.07099 41.7153V39.9279C6.95422 39.9279 5.50992 39.3372 4.54705 38.5134C3.58419 37.6896 3.03398 36.5628 2.83529 35.3582C2.63661 34.1458 2.79709 32.8868 3.21738 31.861C3.64532 30.8196 4.28723 30.1123 4.96735 29.8403L4.3178 28.1772H4.32544ZM70.893 28.1151H4.65404V29.9025H70.9007V28.1151H70.893ZM4.97499 29.8403L71 2.65535L70.3428 1L4.32544 28.185L4.98264 29.8403H4.97499ZM54.4403 114.535V113.641H54.425L54.4403 114.535Z" fill="white"/>
<path d="M51.1314 129.962H64.0765V131.749H51.1314V129.962ZM51.1314 129.962H18.2029V131.749H51.1237V129.962H51.1314ZM51.1161 113.711L18.1953 114.349L18.2258 116.136L51.1466 115.499M51.1161 113.711L51.1466 115.499M51.1161 113.711L54.4326 113.649L54.4632 115.437L51.1466 115.499M19.0894 115.242V99.6292M19.0894 115.242H17.3318M19.0894 115.242V130.855H17.3318V115.242M19.0894 99.6292H17.3318M19.0894 99.6292V61.3697H17.3318V99.6292M17.3318 99.6292V115.242M54.4479 100.523C55.9686 100.523 56.9926 101.253 57.6574 102.411C58.3452 103.608 58.6509 105.287 58.5515 107.035C58.4522 108.784 57.9708 110.494 57.2066 111.737C56.4424 112.989 55.4872 113.649 54.4479 113.649V115.437C56.3201 115.437 57.7491 114.232 58.6967 112.685C59.6443 111.139 60.1945 109.118 60.3091 107.137C60.4161 105.163 60.0952 103.103 59.1782 101.51C58.2382 99.8701 56.664 98.7354 54.4479 98.7354M54.4479 100.523V98.7354M54.4479 100.523H18.2106H18.2029V98.7354H54.4479M38.6829 41.7153H70.9007V39.9279H38.6829M38.6829 41.7153V39.9279M38.6829 41.7153H18.2106M38.6829 39.9279H18.2106M18.2106 41.7153V39.9279M18.2106 41.7153H9.07863V39.9279H18.2106M64.8942 131.197L65.5132 130.56M64.0689 131.749C64.153 131.749 64.2294 131.78 64.2829 131.842L65.5132 130.568C65.1235 130.179 64.6115 129.969 64.0689 129.969V131.757V131.749ZM8.19983 130.855V139H9.95744V130.855H8.19983ZM64.2905 131.842L64.7108 132.262L65.9411 130.987L65.5208 130.568L64.2905 131.842ZM50.2526 114.605V130.855H52.0102V114.605H50.2526ZM38.0639 40.1921L17.5916 60.7324L18.8295 62.0069L39.3019 41.4666L38.0639 40.1921ZM19.0894 61.3619V40.8216H17.3318V61.3619H19.0894ZM9.07863 131.741H18.2106V129.954H9.07863V131.741ZM8.19983 40.8216V130.848H9.95744V40.8294H8.19983V40.8216ZM4.32544 28.1772C3.05691 28.6901 2.13989 29.8559 1.59733 31.1771C1.05476 32.5138 0.856073 34.1069 1.10825 35.6535C1.36043 37.2078 2.0864 38.7388 3.41607 39.8812C4.75338 41.0236 6.62562 41.7153 9.07099 41.7153V39.9279C6.95422 39.9279 5.50992 39.3372 4.54705 38.5134C3.58419 37.6896 3.03398 36.5628 2.83529 35.3582C2.63661 34.1458 2.79709 32.8868 3.21738 31.861C3.64532 30.8196 4.28723 30.1123 4.96735 29.8403L4.3178 28.1772H4.32544ZM70.893 28.1151H4.65404V29.9025H70.9007V28.1151H70.893ZM4.97499 29.8403L71 2.65535L70.3428 1L4.32544 28.185L4.98264 29.8403H4.97499ZM54.4403 114.535V113.641H54.425L54.4403 114.535Z" stroke="white" stroke-miterlimit="10"/>
<rect width="4.37139" height="2.75038" transform="matrix(0.743165 0.669108 -0.743165 0.669108 64.8115 129.433)" fill="white"/>
</svg>
