<svg width="74" height="77" viewBox="0 0 74 77" fill="none" xmlns="http://www.w3.org/2000/svg">
<ellipse cx="31.7002" cy="33.222" rx="31" ry="32.4783" fill="white"/>
<g filter="url(#filter0_d_1132_117)">
<path d="M31.7002 0.700195C14.5882 0.700195 0.700195 15.2505 0.700195 33.1785C0.700195 51.1066 14.5882 65.6569 31.7002 65.6569C48.8122 65.6569 62.7002 51.1066 62.7002 33.1785C62.7002 15.2505 48.8122 0.700195 31.7002 0.700195ZM46.0842 22.7855C45.6192 27.917 43.6042 40.3887 42.5812 46.1374C42.1472 48.5733 41.2792 49.3852 40.4732 49.4827C38.6752 49.6451 37.3112 48.2485 35.5752 47.0468C32.8472 45.1631 31.2972 43.9938 28.6622 42.175C25.5932 40.0639 27.5772 38.8947 29.3442 37.011C29.8092 36.5238 37.7452 28.9564 37.9002 28.2743C37.9217 28.171 37.9189 28.0638 37.8918 27.9619C37.8648 27.86 37.8145 27.7666 37.7452 27.6897C37.5592 27.5273 37.3112 27.5923 37.0942 27.6247C36.8152 27.6897 32.4752 30.7102 24.0122 36.6862C22.7722 37.5631 21.6562 38.0178 20.6642 37.9853C19.5482 37.9529 17.4402 37.3358 15.8592 36.7836C13.9062 36.1341 12.3872 35.7768 12.5112 34.6401C12.5732 34.0555 13.3482 33.4708 14.8052 32.8538C23.8572 28.729 29.8712 26.0008 32.8782 24.7017C41.4962 20.9342 43.2632 20.2846 44.4412 20.2846C44.6892 20.2846 45.2782 20.3496 45.6502 20.6744C45.9602 20.9342 46.0532 21.2915 46.0842 21.5513C46.0532 21.7462 46.1152 22.3308 46.0842 22.7855Z" fill="#74C6EE"/>
</g>
<defs>
<filter id="filter0_d_1132_117" x="0.000195503" y="0.000195503" width="73.4" height="76.3565" filterUnits="userSpaceOnUse" color-interpolation-filters="sRGB">
<feFlood flood-opacity="0" result="BackgroundImageFix"/>
<feColorMatrix in="SourceAlpha" type="matrix" values="0 0 0 0 0 0 0 0 0 0 0 0 0 0 0 0 0 0 127 0" result="hardAlpha"/>
<feOffset dx="5" dy="5"/>
<feGaussianBlur stdDeviation="2.85"/>
<feComposite in2="hardAlpha" operator="out"/>
<feColorMatrix type="matrix" values="0 0 0 0 0 0 0 0 0 0 0 0 0 0 0 0 0 0 0.25 0"/>
<feBlend mode="normal" in2="BackgroundImageFix" result="effect1_dropShadow_1132_117"/>
<feBlend mode="normal" in="SourceGraphic" in2="effect1_dropShadow_1132_117" result="shape"/>
</filter>
</defs>
</svg>
