<svg width="100" height="104" viewBox="0 0 100 104" fill="none" xmlns="http://www.w3.org/2000/svg">
<path d="M81.8729 29.1145C81.8729 29.7929 82.5179 30.3466 83.3082 30.3466V28.5531C83.6715 28.5531 83.9622 28.8026 83.9622 29.1145H81.8729ZM14.6068 103.187C15.3971 103.187 16.042 102.633 16.042 101.955H13.9527C13.9527 101.643 14.2434 101.393 14.6068 101.393V103.187ZM2.3708 101.393C2.73416 101.393 3.02484 101.643 3.02484 101.955H0.935547C0.935547 102.633 1.5805 103.187 2.3708 103.187V101.393ZM16.042 63.4956C16.042 62.8171 15.3971 62.2635 14.6068 62.2635V64.057C14.2434 64.057 13.9527 63.8075 13.9527 63.4956H16.042ZM82.5996 2.78874C82.2545 2.82773 81.8729 2.60939 81.8729 2.22729H83.9622C83.9622 1.4475 83.1447 0.917238 82.3362 1.01081L82.6087 2.78874H82.5996ZM2.3708 62.2635C1.5805 62.2635 0.935547 62.8171 0.935547 63.4956H3.02484C3.02484 63.8075 2.73416 64.057 2.3708 64.057V62.2635ZM0.935547 82.7252V101.955H3.02484V82.7252H0.935547ZM0.935547 63.4956V82.7252H3.02484V63.4956H0.935547ZM16.042 96.7303V93.307H13.9527V96.7303H16.042ZM16.042 101.955V96.7303H13.9527V101.955H16.042ZM2.3708 103.187H14.6068V101.393H2.3708V103.187ZM14.6068 62.2713H2.3708V64.0648H14.6068V62.2713ZM16.042 72.6191V63.5034H13.9527V72.6191H16.042ZM13.9527 72.6191V75.9488H16.042V72.6191H13.9527ZM34.3824 95.8413H14.9974V97.6349H34.3824V95.8413ZM34.3824 71.7224H14.9974V73.5159H34.3824V71.7224ZM34.3824 73.5159C37.1348 73.5159 39.86 72.7439 41.8948 71.0128C43.9386 69.2738 45.1831 66.6615 45.1831 63.168H43.0938C43.0938 66.2872 41.9947 68.4082 40.4232 69.7417C38.8426 71.0829 36.6897 71.7224 34.3824 71.7224V73.5159ZM69.6188 63.0979C68.6195 73.7342 64.0594 81.6023 57.6553 86.9595C51.2421 92.3245 42.9212 95.2253 34.3006 95.8491L34.4732 97.6349C43.5208 96.9798 52.314 93.9309 59.1178 88.2462C65.9216 82.5537 70.6725 74.2723 71.7081 63.246L69.6279 63.0979H69.6188ZM82.9176 23.5078C78.1304 23.5078 74.8602 25.4573 72.7164 28.4907C70.618 31.4617 69.6188 35.462 69.1737 39.6807C68.7286 43.915 68.8376 48.4768 69.0647 52.6253C69.2827 56.8049 69.6097 60.509 69.6097 63.168H71.699C71.699 60.4544 71.3629 56.6334 71.154 52.5395C70.9359 48.4144 70.8269 43.954 71.263 39.8367C71.699 35.7038 72.6619 32.0309 74.5059 29.4108C76.3045 26.8531 78.9479 25.2935 82.9176 25.2935V23.5V23.5078ZM83.3082 30.3466H99.1232V28.5531H83.3082V30.3466ZM81.8729 24.4046V29.1145H83.9622V24.4046H81.8729ZM81.8729 2.23509V24.4046H83.9622V2.22729H81.8729V2.23509ZM82.3362 1.01861C70.0639 2.39104 61.4796 5.60379 55.5206 10.0642C49.5616 14.5324 46.3186 20.1859 44.6109 26.2917C42.9031 32.3819 42.7123 38.9555 42.8395 45.2952C42.9757 51.6895 43.439 57.7797 43.0938 63.1135L45.1831 63.2148C45.5283 57.7953 45.065 51.5257 44.9288 45.264C44.7925 38.9477 45.0015 32.569 46.6366 26.7128C48.2717 20.8721 51.3329 15.5851 56.8832 11.4132C62.4425 7.24135 70.6089 4.12998 82.5906 2.78874L82.318 1.01081L82.3362 1.01861ZM34.3915 96.7381V97.6349H34.4823L34.3915 96.7381ZM70.6634 63.168L71.7081 63.2382V63.1992V63.1603H70.6634V63.168ZM44.1476 63.168L43.1029 63.1213V63.1447V63.168H44.1476Z" fill="white"/>
<path d="M81.8729 29.1145C81.8729 29.7929 82.5179 30.3466 83.3082 30.3466M81.8729 29.1145H83.9622M81.8729 29.1145V24.4046M83.3082 30.3466V28.5531M83.3082 30.3466H99.1232V28.5531H83.3082M83.3082 28.5531C83.6715 28.5531 83.9622 28.8026 83.9622 29.1145M83.9622 29.1145V24.4046M14.6068 103.187C15.3971 103.187 16.042 102.633 16.042 101.955M14.6068 103.187V101.393M14.6068 103.187H2.3708M16.042 101.955H13.9527M16.042 101.955V96.7303M13.9527 101.955C13.9527 101.643 14.2434 101.393 14.6068 101.393M13.9527 101.955V96.7303M14.6068 101.393H2.3708M2.3708 101.393C2.73416 101.393 3.02484 101.643 3.02484 101.955M2.3708 101.393V103.187M3.02484 101.955H0.935547M3.02484 101.955V82.7252M0.935547 101.955C0.935547 102.633 1.5805 103.187 2.3708 103.187M0.935547 101.955V82.7252M81.8729 2.22729C81.8729 2.60939 82.2545 2.82773 82.5996 2.78874H82.6087L82.3362 1.01081C83.1447 0.917238 83.9622 1.4475 83.9622 2.22729M81.8729 2.22729H83.9622M81.8729 2.22729V2.23509V24.4046M83.9622 2.22729V24.4046M0.935547 63.4956C0.935547 62.8171 1.5805 62.2635 2.3708 62.2635V64.057C2.73416 64.057 3.02484 63.8075 3.02484 63.4956M0.935547 63.4956H3.02484M0.935547 63.4956V82.7252M3.02484 63.4956V82.7252M0.935547 82.7252H3.02484M16.042 96.7303V93.307H13.9527V96.7303M16.042 96.7303H13.9527M16.042 72.6191V63.5034H13.9527V72.6191M16.042 72.6191H13.9527M16.042 72.6191V75.9488H13.9527V72.6191M34.3824 71.7224H14.9974V73.5159H34.3824M34.3824 71.7224V73.5159M34.3824 71.7224C36.6897 71.7224 38.8426 71.0829 40.4232 69.7417C41.9947 68.4083 43.0938 66.2872 43.0938 63.168H45.1831C45.1831 66.6615 43.9386 69.2738 41.8948 71.0128C39.86 72.7439 37.1348 73.5159 34.3824 73.5159M81.8729 24.4046H83.9622M82.4725 1.90757L82.6087 2.79654M16.042 63.4956C16.042 62.8171 15.3971 62.2635 14.6068 62.2635V64.057C14.2434 64.057 13.9527 63.8075 13.9527 63.4956H16.042ZM14.6068 62.2713H2.3708V64.0648H14.6068V62.2713ZM34.3824 95.8413H14.9974V97.6349H34.3824V95.8413ZM69.6188 63.0979C68.6195 73.7342 64.0594 81.6023 57.6553 86.9595C51.2421 92.3245 42.9212 95.2253 34.3006 95.8491L34.4732 97.6349C43.5208 96.9798 52.314 93.9309 59.1178 88.2462C65.9216 82.5537 70.6725 74.2723 71.7081 63.246L69.6279 63.0979H69.6188ZM82.9176 23.5078C78.1304 23.5078 74.8602 25.4573 72.7164 28.4907C70.618 31.4617 69.6188 35.462 69.1737 39.6807C68.7286 43.915 68.8376 48.4768 69.0647 52.6253C69.2827 56.8049 69.6097 60.509 69.6097 63.168H71.699C71.699 60.4544 71.3629 56.6334 71.154 52.5395C70.9359 48.4144 70.8269 43.954 71.263 39.8367C71.699 35.7038 72.6619 32.0309 74.5059 29.4108C76.3045 26.8531 78.9479 25.2935 82.9176 25.2935V23.5V23.5078ZM82.3362 1.01861C70.0639 2.39104 61.4796 5.60379 55.5206 10.0642C49.5616 14.5324 46.3186 20.1859 44.6109 26.2917C42.9031 32.3819 42.7123 38.9555 42.8395 45.2952C42.9758 51.6895 43.439 57.7797 43.0938 63.1135L45.1831 63.2148C45.5283 57.7953 45.065 51.5258 44.9288 45.264C44.7925 38.9477 45.0015 32.569 46.6366 26.7128C48.2717 20.8721 51.3329 15.5851 56.8832 11.4132C62.4425 7.24135 70.6089 4.12998 82.5906 2.78874L82.318 1.01081L82.3362 1.01861ZM34.3915 96.7381V97.6349H34.4823L34.3915 96.7381ZM70.6634 63.168L71.7081 63.2382V63.1992V63.1603H70.6634V63.168ZM44.1476 63.168L43.1029 63.1213V63.1447V63.168H44.1476Z" stroke="white" stroke-miterlimit="10"/>
</svg>
