<svg width="37" height="37" viewBox="0 0 37 37" fill="none" xmlns="http://www.w3.org/2000/svg">
<path d="M2.59 2.59C4.90083e-07 5.20467 0 9.38567 0 17.76V19.24C0 27.602 4.90083e-07 31.783 2.59 34.41C5.20467 37 9.38567 37 17.76 37H19.24C27.602 37 31.783 37 34.41 34.41C37 31.7953 37 27.6143 37 19.24V17.76C37 9.398 37 5.217 34.41 2.59C31.7953 4.90083e-07 27.6143 0 19.24 0H17.76C9.398 0 5.217 4.90083e-07 2.59 2.59ZM6.24067 11.2603H10.4833C10.619 18.315 13.727 21.2997 16.1937 21.9163V11.2603H20.1773V17.3407C22.607 17.0817 25.1723 14.3067 26.0357 11.248H30.007C29.683 12.8312 29.036 14.3307 28.1066 15.6527C27.1771 16.9747 25.9851 18.0909 24.605 18.9317C26.1455 19.6981 27.506 20.7826 28.5966 22.1134C29.6872 23.4443 30.4832 24.9913 30.932 26.6523H26.5537C25.6163 23.7293 23.273 21.46 20.1773 21.1517V26.6523H19.684C11.248 26.6523 6.438 20.8803 6.24067 11.2603Z" fill="white"/>
</svg>
