<svg width="47" height="47" viewBox="0 0 47 47" fill="none" xmlns="http://www.w3.org/2000/svg">
<path d="M7.3889 7.39158C6.49109 8.30244 5.90126 9.58129 5.57241 12.0111C5.23574 14.5297 5.23313 17.8652 5.23313 22.6648V24.3351C5.23313 29.1269 5.23574 32.4598 5.57241 34.9757C5.89865 37.4082 6.49109 38.6949 7.39151 39.6136C8.30497 40.5088 9.58381 41.1012 12.011 41.4275C14.5296 41.7641 17.865 41.7694 22.6646 41.7694H24.3349C29.1267 41.7694 32.4595 41.7641 34.978 41.4275C37.4078 41.1012 38.6945 40.5088 39.6132 39.6084C40.5084 38.6975 41.1008 37.4186 41.4271 34.9888C41.7663 32.4702 41.769 29.1348 41.769 24.3351V22.6648C41.769 17.873 41.7637 14.5401 41.4297 12.0242C41.1008 9.59173 40.5084 8.30505 39.608 7.38636C38.6971 6.49116 37.4183 5.89871 34.9885 5.57247C32.4699 5.23579 29.1345 5.23057 24.3349 5.23057H22.6646C17.8728 5.23057 14.54 5.23579 12.0241 5.57247C9.59164 5.89871 8.30758 6.49116 7.3889 7.39158ZM22.6646 0.01074H24.3349C28.1062 0.01074 31.9349 -0.101486 35.6801 0.399617C38.6971 0.804154 41.2522 1.66804 43.2931 3.68811L43.314 3.7116C45.3315 5.75777 46.1979 8.31287 46.6025 11.3325C47.101 15.0726 46.9887 18.8987 46.9887 22.6648V24.3351C46.9887 28.1038 47.1036 31.9326 46.5999 35.6804C46.1979 38.6975 45.3315 41.2526 43.3114 43.2935L43.2879 43.3144C41.2444 45.3319 38.6893 46.1958 35.667 46.6029C31.9271 47.1014 28.101 46.9892 24.3349 46.9892H22.6646C18.8959 46.9892 15.0672 47.1014 11.322 46.6003C8.30236 46.1958 5.74727 45.3319 3.70895 43.3118L3.68546 43.2883C1.67063 41.2422 0.804146 38.687 0.399613 35.6674C-0.101486 31.93 0.0107399 28.1038 0.0107399 24.3351V22.6648C0.0107399 18.8961 -0.101485 15.0673 0.402223 11.3195C0.804146 8.30244 1.67063 5.74733 3.69068 3.70638L3.71156 3.6855C5.75772 1.66804 8.3128 0.804154 11.3324 0.397007C15.075 -0.0988764 18.9011 0.01074 22.6646 0.01074ZM7.93436 14.3078C8.18491 26.5222 14.2921 33.8509 25.003 33.8509H25.6294V26.8668C29.5599 27.2582 32.5352 30.1396 33.7253 33.8509H39.2843C38.7145 31.7418 37.7038 29.7776 36.3191 28.0879C34.9344 26.3981 33.2071 25.0212 31.2511 24.048C33.0034 22.9806 34.5169 21.5633 35.697 19.8847C36.8771 18.2062 37.6985 16.3024 38.1099 14.2922H33.0676C31.9714 18.1757 28.7143 21.6991 25.6294 22.028V14.3078H20.5714V27.8376C17.4396 27.0547 13.4934 23.2651 13.3212 14.3078H7.93436Z" fill="#7336B4"/>
</svg>
