<svg width="46" height="45" viewBox="0 0 46 45" fill="none" xmlns="http://www.w3.org/2000/svg">
<g filter="url(#filter0_d_1106_11)">
<path d="M38 31.1908C38 33.9697 35.6377 36.2215 32.7222 36.2215H5.27778C2.36339 36.2215 0 33.9697 0 31.1908V5.03077C0 2.25177 2.36339 0 5.27778 0H32.7222C35.6377 0 38 2.25177 38 5.03077V31.1908Z" fill="#009DEA"/>
</g>
<path d="M31.6001 12.1154C31.6486 11.9635 31.6719 11.8226 31.6655 11.6968C31.6497 11.3326 31.3869 11.068 30.7683 11.068H28.0049C27.3071 11.068 26.9852 11.4705 26.7973 11.8739C26.7973 11.8739 25.0746 15.2536 23.0891 17.4822C22.4452 18.1272 22.118 18.1111 21.7697 18.1111C21.5829 18.1111 21.111 17.8957 21.111 17.3051V12.0882C21.111 11.39 20.9284 11.068 20.3384 11.068H15.4311C15.0015 11.068 14.7777 11.39 14.7777 11.7129C14.7777 12.384 15.7256 12.545 15.8333 14.4255V18.0708C15.8333 18.9562 15.6718 19.1172 15.3234 19.1172C14.384 19.1172 12.5346 16.0988 11.2965 12.1426C11.0284 11.3638 10.7603 11.068 10.0625 11.068H7.2727C6.46731 11.068 6.33325 11.4443 6.33325 11.8468C6.33325 12.5722 6.96659 16.4942 10.4235 21.0038C12.9305 24.2738 16.2333 26.1603 19.1572 26.1603C20.9284 26.1603 21.11 25.7307 21.11 25.0596V22.0693C21.111 21.2633 21.3042 21.1295 21.8679 21.1295C22.27 21.1295 23.0902 21.3811 24.6735 23.1418C26.4996 25.1722 26.8311 26.1603 27.8782 26.1603H30.6416C31.2834 26.1603 31.6518 25.9037 31.6666 25.4057C31.6697 25.2789 31.6507 25.137 31.6075 24.9791C31.4027 24.3995 30.4632 22.9829 29.2916 21.6326C28.6424 20.885 28.0017 20.1445 27.7072 19.742C27.5098 19.4794 27.4349 19.2943 27.4444 19.1172C27.4539 18.9311 27.5552 18.754 27.7072 18.5065C27.6797 18.5065 31.2517 13.7263 31.6001 12.1154Z" fill="white"/>
<defs>
<filter id="filter0_d_1106_11" x="0" y="0" width="46" height="44.2215" filterUnits="userSpaceOnUse" color-interpolation-filters="sRGB">
<feFlood flood-opacity="0" result="BackgroundImageFix"/>
<feColorMatrix in="SourceAlpha" type="matrix" values="0 0 0 0 0 0 0 0 0 0 0 0 0 0 0 0 0 0 127 0" result="hardAlpha"/>
<feOffset dx="4" dy="4"/>
<feGaussianBlur stdDeviation="2"/>
<feComposite in2="hardAlpha" operator="out"/>
<feColorMatrix type="matrix" values="0 0 0 0 0 0 0 0 0 0 0 0 0 0 0 0 0 0 0.17 0"/>
<feBlend mode="normal" in2="BackgroundImageFix" result="effect1_dropShadow_1106_11"/>
<feBlend mode="normal" in="SourceGraphic" in2="effect1_dropShadow_1106_11" result="shape"/>
</filter>
</defs>
</svg>
