<svg width="46" height="47" viewBox="0 0 46 47" fill="none" xmlns="http://www.w3.org/2000/svg">
<g filter="url(#filter0_d_1106_14)">
<path d="M32.44 5.57667C28.8522 1.98185 24.0832 0.00120551 19.0072 0C8.52779 0 0.004817 8.53016 1.08144e-06 19.0156C-0.0012029 22.6093 1.00292 26.1076 2.9052 29.1371L3.3579 29.8568L1.43755 36.874L8.62892 34.9862L9.32362 35.3985C12.2397 37.132 15.5843 38.0482 18.994 38.0494H19.0012C29.4734 38.0494 37.9964 29.518 38 19.0313C38.0012 13.9501 36.0279 9.17149 32.44 5.57667Z" fill="#26D37A"/>
</g>
<path fill-rule="evenodd" clip-rule="evenodd" d="M13.2871 9.45004C12.8597 8.49769 12.4094 8.47841 12.0013 8.46153C11.6678 8.44706 11.2873 8.44827 10.9069 8.44827C10.5264 8.44827 9.90757 8.59172 9.38384 9.16434C8.86011 9.73695 7.38403 11.1197 7.38403 13.9333C7.38403 16.747 9.4308 19.4666 9.71614 19.8475C10.0015 20.2285 13.6676 26.1873 19.4732 28.4802C24.2975 30.3849 25.28 30.0063 26.3274 29.9111C27.3749 29.8159 29.707 28.5284 30.1826 27.1927C30.6582 25.857 30.6582 24.7129 30.5161 24.4743C30.3728 24.2356 29.9924 24.0933 29.4217 23.8064C28.851 23.5195 26.0421 22.1368 25.5184 21.9463C24.9946 21.7558 24.6142 21.6606 24.2325 22.2332C23.8521 22.8046 22.7576 24.0933 22.4241 24.4743C22.0906 24.8564 21.7571 24.9046 21.1865 24.6177C20.6158 24.3308 18.7761 23.7281 16.5933 21.78C14.8957 20.2646 13.7495 18.3925 13.416 17.8199C13.0825 17.2485 13.3799 16.9386 13.6664 16.6529C13.9228 16.3962 14.2371 15.9851 14.5236 15.6512C14.809 15.3172 14.9041 15.0785 15.0943 14.6976C15.2845 14.3155 15.1894 13.9815 15.0462 13.6958C14.9053 13.4089 13.7952 10.5808 13.2871 9.45004Z" fill="white"/>
<defs>
<filter id="filter0_d_1106_14" x="0" y="0" width="46" height="46.0494" filterUnits="userSpaceOnUse" color-interpolation-filters="sRGB">
<feFlood flood-opacity="0" result="BackgroundImageFix"/>
<feColorMatrix in="SourceAlpha" type="matrix" values="0 0 0 0 0 0 0 0 0 0 0 0 0 0 0 0 0 0 127 0" result="hardAlpha"/>
<feOffset dx="4" dy="4"/>
<feGaussianBlur stdDeviation="2"/>
<feComposite in2="hardAlpha" operator="out"/>
<feColorMatrix type="matrix" values="0 0 0 0 0 0 0 0 0 0 0 0 0 0 0 0 0 0 0.17 0"/>
<feBlend mode="normal" in2="BackgroundImageFix" result="effect1_dropShadow_1106_14"/>
<feBlend mode="normal" in="SourceGraphic" in2="effect1_dropShadow_1106_14" result="shape"/>
</filter>
</defs>
</svg>
